<?xml version="1.0" standalone="no"?>
<!DOCTYPE svg PUBLIC "-//W3C//DTD SVG 20010904//EN"
 "http://www.w3.org/TR/2001/REC-SVG-20010904/DTD/svg10.dtd">
<svg version="1.0" xmlns="http://www.w3.org/2000/svg"
 width="1280.000000pt" height="1280.000000pt" viewBox="0 0 1280.000000 1280.000000"
 preserveAspectRatio="xMidYMid meet">
<metadata>
Created by potrace 1.14, written by Peter Selinger 2001-2017
</metadata>
<g transform="translate(0.000000,1280.000000) scale(0.100000,-0.100000)"
fill="#000000" stroke="none">
<path d="M6665 11952 c-3 -3 -220 -7 -483 -8 -262 -1 -506 -5 -542 -9 -88 -8
-304 -51 -329 -65 -12 -6 -21 -9 -21 -6 0 10 -163 -55 -257 -102 -103 -51
-147 -77 -278 -159 -87 -54 -191 -109 -270 -143 -27 -12 -59 -25 -70 -30 -11
-5 -78 -32 -150 -60 -71 -28 -161 -64 -200 -79 -38 -16 -102 -38 -141 -49
-124 -37 -175 -87 -292 -287 -95 -163 -149 -233 -224 -295 -117 -95 -131 -113
-141 -180 -3 -19 -11 -66 -17 -105 -6 -38 -12 -77 -15 -85 -2 -8 -6 -33 -10
-55 -10 -66 -34 -169 -47 -195 -7 -14 -24 -41 -39 -60 -73 -96 -127 -224 -159
-375 -17 -85 -22 -119 -35 -247 -12 -118 -40 -228 -90 -358 -63 -161 -63 -161
-101 -940 -10 -204 -11 -446 -1 -505 5 -27 11 -68 13 -90 2 -22 6 -58 10 -80
3 -22 8 -53 10 -70 2 -16 7 -43 11 -60 4 -16 7 -32 8 -35 6 -40 39 -124 78
-203 26 -54 50 -106 52 -115 3 -9 11 -46 19 -82 8 -36 32 -112 54 -170 22 -58
42 -121 46 -140 26 -164 136 -392 310 -640 138 -198 188 -297 254 -510 68
-217 67 -201 66 -790 0 -531 -2 -564 -30 -670 -8 -30 -17 -64 -19 -75 -3 -11
-16 -49 -31 -85 -39 -99 -94 -267 -105 -324 -10 -51 -18 -123 -24 -206 -1 -25
-8 -65 -15 -90 -13 -48 -91 -209 -164 -338 -60 -108 -117 -212 -134 -247 -44
-88 -135 -195 -252 -295 -14 -12 -36 -31 -49 -42 -14 -12 -62 -50 -108 -85
-45 -35 -86 -70 -90 -77 -12 -19 -76 -54 -108 -60 -17 -3 -55 -7 -85 -11 -166
-18 -600 -182 -720 -272 -67 -50 -130 -84 -199 -110 -21 -8 -14 -13 65 -42
253 -94 528 -187 824 -281 91 -29 190 -60 220 -70 30 -9 136 -41 235 -70 99
-28 189 -56 200 -60 19 -7 194 -57 225 -64 8 -2 35 -10 60 -17 25 -7 50 -14
55 -15 6 -2 23 -6 39 -9 16 -3 33 -8 38 -11 4 -3 16 -7 25 -9 10 -2 90 -22
178 -45 88 -23 171 -44 185 -46 14 -3 33 -7 42 -10 9 -3 25 -6 35 -8 10 -2 56
-13 103 -25 47 -11 141 -32 210 -46 69 -14 134 -27 145 -30 31 -6 72 -14 165
-31 47 -9 94 -18 105 -20 19 -4 37 -7 115 -21 19 -3 44 -7 55 -10 11 -2 79
-12 150 -23 72 -11 139 -22 150 -24 11 -2 45 -7 75 -11 30 -4 64 -9 75 -11 11
-3 39 -6 63 -9 24 -2 94 -11 155 -19 105 -14 155 -20 267 -32 25 -2 63 -6 85
-9 22 -2 69 -7 105 -10 36 -3 92 -8 125 -11 33 -3 89 -7 125 -9 36 -3 101 -7
145 -9 401 -26 1145 -27 1295 -2 14 3 47 7 74 11 27 3 52 8 55 9 3 2 29 7 56
10 28 4 68 12 90 18 22 5 48 12 58 14 10 2 27 6 37 9 10 3 27 7 37 9 71 14
289 85 418 137 17 7 32 13 35 13 7 2 70 26 105 41 231 100 317 141 702 331
183 90 334 163 335 162 2 -2 19 7 38 19 50 31 392 182 572 253 84 33 162 65
173 70 57 25 315 110 458 151 68 19 60 37 -28 58 -27 7 -66 16 -85 21 -19 5
-111 27 -203 50 -92 22 -204 54 -248 70 -45 16 -97 31 -117 34 -21 2 -55 7
-77 10 -105 15 -182 18 -615 22 -462 4 -532 6 -580 17 -14 3 -59 11 -100 17
-41 7 -84 14 -95 17 -11 2 -66 12 -123 23 -57 10 -113 25 -125 33 -12 8 -46
59 -74 114 -49 93 -66 144 -65 203 0 56 3 69 20 90 17 21 28 23 133 26 202 6
240 20 639 233 227 122 249 139 309 236 66 109 127 181 297 355 183 186 192
197 215 247 17 36 46 189 54 278 17 203 27 250 67 325 15 30 51 79 79 109 74
79 99 115 111 158 20 75 98 222 157 296 45 56 61 86 66 119 9 61 36 118 98
207 70 99 79 119 107 226 26 103 40 134 84 190 43 53 46 64 52 175 21 413 18
698 -10 837 -11 54 -40 144 -47 149 -5 3 -9 12 -9 21 0 16 -87 145 -103 152
-9 4 -26 43 -34 81 -11 49 -3 263 12 355 16 91 39 193 52 229 17 47 27 209 14
234 -41 78 -54 131 -56 232 -1 58 -6 130 -10 160 -13 102 -67 330 -94 395 -30
74 -48 108 -90 165 -104 145 -119 191 -122 364 -1 147 -7 177 -60 361 -92 319
-113 370 -274 665 -174 317 -268 422 -625 690 -96 72 -188 141 -204 153 -101
76 -448 348 -456 357 -23 27 -302 224 -366 259 -21 12 -63 35 -92 51 -100 54
-341 147 -482 187 -79 22 -240 62 -272 68 -15 3 -58 12 -95 20 -37 9 -112 24
-167 35 -54 11 -101 22 -105 24 -3 2 -31 7 -61 11 -30 4 -68 9 -85 12 -43 6
-374 11 -380 5z"/>
</g>
</svg>
