<svg width="565" height="181" viewBox="0 0 565 181" fill="none" xmlns="http://www.w3.org/2000/svg">
<path d="M283.771 136.6V89.75L269.641 120.57H251.871L237.741 89.75V136.6H205.221V30.05H239.651L260.761 75.5501L282.011 30.05H316.291V136.6H283.771Z" fill="#012033"/>
<path d="M314.291 32V134.6H285.771V80.6L268.361 118.6H253.151L235.741 80.6V134.6H207.221V32H238.371L260.751 80.25L283.281 32H314.281H314.291ZM318.281 28H280.731L279.661 30.31L260.771 70.81L242.001 30.36L240.931 28H203.221V138.6H239.741V98.91L249.511 120.24L250.581 122.57H270.931L272.001 120.24L281.771 98.91V138.6H318.291V28H318.281Z" fill="white" stroke="#052230" stroke-width="2" stroke-miterlimit="10"/>
<path d="M403.501 136.6L385.211 105.11H376.811V136.6H344.291V30H394.001C399.146 29.9585 404.235 31.0618 408.901 33.23C413.341 35.3063 417.33 38.2351 420.641 41.85C423.879 45.4119 426.45 49.5275 428.231 54C429.994 58.3184 430.911 62.9356 430.931 67.6C430.939 71.6717 430.315 75.7199 429.081 79.6C427.87 83.4139 426.039 87.0021 423.661 90.22C421.662 92.9301 419.308 95.3586 416.661 97.44L439.451 136.6H403.501ZM392.801 76.6C393.584 76.5721 394.332 76.2674 394.911 75.74C395.846 74.9187 396.579 73.8919 397.051 72.74C397.709 71.1189 398.022 69.3787 397.971 67.63C398.048 65.8844 397.705 64.1458 396.971 62.56C396.401 61.3785 395.558 60.35 394.511 59.56C393.821 59.0056 392.975 58.6804 392.091 58.63H376.811V76.63L392.801 76.6Z" fill="#012033"/>
<path d="M394.001 32C398.832 31.9485 403.615 32.9733 408.001 35C412.21 36.9594 415.989 39.7327 419.121 43.16C422.202 46.5225 424.654 50.4108 426.361 54.64C428.037 58.7209 428.907 63.0881 428.921 67.5C428.947 71.4008 428.36 75.2815 427.181 79C426.034 82.5914 424.304 85.9698 422.061 89C419.812 92.0452 417.091 94.7121 414.001 96.9L436.001 134.6H404.701L386.421 103.11H374.811V134.6H346.291V32H394.001ZM374.811 78.56H392.811C394.051 78.5296 395.242 78.0702 396.181 77.26C397.364 76.2366 398.289 74.9483 398.881 73.5C399.659 71.6258 400.034 69.6087 399.981 67.58C400.052 65.5098 399.626 63.4526 398.741 61.58C398.019 60.1277 396.963 58.8668 395.661 57.9C394.633 57.1036 393.381 56.649 392.081 56.6H374.811V78.6V78.56ZM394.001 28H342.291V138.6H378.811V107.11H384.061L401.191 136.61L402.351 138.61H442.911L439.411 132.61L419.221 97.91C421.457 95.9742 423.47 93.7939 425.221 91.41C427.748 88.0181 429.7 84.2345 431.001 80.21C432.296 76.1255 432.951 71.8649 432.941 67.58C432.921 62.6581 431.953 57.7861 430.091 53.23C428.2 48.5579 425.491 44.2606 422.091 40.54C418.602 36.7326 414.399 33.6476 409.721 31.46C404.803 29.1544 399.433 27.9725 394.001 28ZM378.811 60.6H392.071C392.538 60.6656 392.978 60.8595 393.341 61.16C394.125 61.7648 394.755 62.5459 395.181 63.44C395.764 64.7395 396.034 66.1573 395.971 67.58C396.021 69.0465 395.766 70.5075 395.221 71.87C394.876 72.7384 394.339 73.5178 393.651 74.15C393.419 74.374 393.121 74.5176 392.801 74.56H378.801L378.811 61.16V60.6Z" fill="white" stroke="#052230" stroke-width="2" stroke-miterlimit="10"/>
<path d="M529.711 136.6L524.351 116.53H498.071L492.701 136.6H459.311L493.811 30H528.611L563.001 136.6H529.711ZM518.261 93.75L511.261 67.38L504.211 93.75H518.261Z" fill="#012033"/>
<path d="M524.151 32L557.211 134.6H528.211L522.841 114.53H493.541L488.171 134.6H459.061L492.271 32H524.151ZM498.561 95.75H517.861L508.211 59.63L498.561 95.75ZM527.071 28H489.361L488.461 30.77L455.251 133.37L453.561 138.6H491.241L492.031 135.6L496.611 118.49H519.811L524.391 135.6L525.181 138.6H562.701L561.001 133.38L528.001 30.82L527.071 28ZM503.771 91.71L508.211 75.09L512.651 91.71H503.771Z" fill="white" stroke="#052230" stroke-width="2" stroke-miterlimit="10"/>
<path d="M171.511 91.73C171.441 91.58 171.361 91.43 171.281 91.29C171.52 90.9842 171.719 90.6479 171.871 90.29L177.411 78C177.784 77.1749 177.9 76.2562 177.743 75.3641C177.586 74.472 177.163 73.6481 176.531 73L167.111 63.35L166.741 63.01C166.864 62.6547 166.941 62.285 166.971 61.91L167.971 48.46C168.039 47.555 167.832 46.6505 167.377 45.8653C166.922 45.08 166.24 44.4508 165.421 44.06L153.271 38.21C153.123 38.1341 152.969 38.0705 152.811 38.02C152.803 37.6442 152.746 37.2709 152.641 36.91L149.001 24C148.754 23.129 148.251 22.3523 147.558 21.7709C146.864 21.1895 146.011 20.8303 145.111 20.74L131.691 19.39H131.181C131.051 19.0336 130.873 18.6971 130.651 18.39L122.781 7.39004C122.251 6.65274 121.512 6.09225 120.659 5.78182C119.807 5.47139 118.88 5.42546 118.001 5.65004L104.931 9.00004C104.768 9.04089 104.608 9.09097 104.451 9.15004C104.204 8.86454 103.922 8.61241 103.611 8.40004L92.4706 0.780036C91.7193 0.271455 90.8328 -0.000366211 89.9256 -0.000366211C89.0183 -0.000366211 88.1319 0.271455 87.3806 0.780036L76.2406 8.38004L75.8406 8.69004C75.5273 8.50876 75.1909 8.37083 74.8406 8.28004L61.7306 5.00004C60.8635 4.78099 59.9508 4.8247 59.1085 5.12562C58.2663 5.42654 57.5326 5.97109 57.0006 6.69004L49.1306 17.69C49.0336 17.8254 48.9434 17.9656 48.8606 18.11C48.4886 18.0647 48.1125 18.0647 47.7406 18.11L34.2706 19.37C33.3682 19.4597 32.514 19.8199 31.8198 20.4034C31.1257 20.9869 30.624 21.7665 30.3806 22.64L26.7206 35.64C26.6767 35.801 26.6433 35.9647 26.6206 36.13C26.2502 36.1995 25.8905 36.3172 25.5506 36.48L13.4006 42.32C12.5842 42.7134 11.9051 43.3435 11.4521 44.1283C10.999 44.9132 10.7929 45.8163 10.8606 46.72L11.8606 60.17C11.8701 60.3378 11.8901 60.5048 11.9206 60.67C11.6019 60.8653 11.3095 61.1005 11.0506 61.37L1.64058 71C1.00846 71.6484 0.585656 72.4717 0.426967 73.3632C0.268278 74.2547 0.381021 75.1734 0.750584 76L6.30058 88.32C6.36852 88.4762 6.44878 88.6266 6.54058 88.77C6.30238 89.077 6.10413 89.4131 5.95058 89.77L0.400584 102C0.0283865 102.825 -0.0867267 103.744 0.070225 104.636C0.227177 105.527 0.648925 106.351 1.28058 107L10.7006 116.66L11.0706 117C10.9542 117.357 10.8804 117.726 10.8506 118.1L9.85058 131.55C9.78289 132.454 9.989 133.357 10.4421 134.142C10.8951 134.927 11.5742 135.557 12.3906 135.95L24.5406 141.8C24.6902 141.875 24.8437 141.942 25.0006 142C25.0096 142.375 25.0633 142.748 25.1606 143.11L28.8106 156.11C29.0546 156.985 29.5578 157.766 30.2539 158.349C30.95 158.933 31.8064 159.292 32.7106 159.38L46.1306 160.72C46.2969 160.735 46.4643 160.735 46.6306 160.72C46.7624 161.075 46.9406 161.412 47.1606 161.72L55.0006 172.67C55.5272 173.408 56.2647 173.968 57.116 174.279C57.9674 174.59 58.8928 174.635 59.7706 174.41L72.8406 171.08C73.0041 171.042 73.1645 170.992 73.3206 170.93C73.5693 171.21 73.8514 171.459 74.1606 171.67L85.3006 179.27C86.0504 179.783 86.9374 180.057 87.8456 180.057C88.7538 180.057 89.6408 179.783 90.3906 179.27L101.531 171.67C101.67 171.579 101.804 171.479 101.931 171.37C102.248 171.542 102.583 171.68 102.931 171.78L116.001 175.11C116.88 175.335 117.807 175.289 118.659 174.978C119.512 174.668 120.251 174.107 120.781 173.37L128.651 162.37C128.774 162.253 128.89 162.129 129.001 162C129.373 162.04 129.748 162.04 130.121 162L143.541 160.65C144.443 160.562 145.298 160.203 145.994 159.622C146.689 159.04 147.194 158.262 147.441 157.39L151.091 144.39C151.137 144.229 151.173 144.065 151.201 143.9C151.567 143.826 151.922 143.708 152.261 143.55L164.411 137.7C165.228 137.304 165.908 136.673 166.362 135.886C166.817 135.1 167.025 134.196 166.961 133.29L165.961 119.84C165.961 119.67 165.961 119.51 165.891 119.35C166.208 119.149 166.503 118.914 166.771 118.65L176.191 108.99C176.822 108.341 177.244 107.517 177.401 106.626C177.558 105.734 177.443 104.815 177.071 103.99L171.511 91.73Z" fill="#012033"/>
<path d="M88.9109 171.73C134.033 171.73 170.611 135.152 170.611 90.0301C170.611 44.9084 134.033 8.33008 88.9109 8.33008C43.7893 8.33008 7.21094 44.9084 7.21094 90.0301C7.21094 135.152 43.7893 171.73 88.9109 171.73Z" fill="white"/>
<path d="M88.9098 172.18C72.6633 172.18 56.7817 167.363 43.2728 158.337C29.764 149.312 19.2346 136.484 13.016 121.474C6.79735 106.465 5.16875 89.9491 8.3361 74.0144C11.5034 58.0797 19.3245 43.4419 30.8104 31.9518C42.2963 20.4617 56.9312 12.6354 72.8647 9.46219C88.7983 6.28903 105.315 7.91159 120.326 14.1247C135.338 20.3379 148.17 30.8626 157.2 44.3681C166.231 57.8737 171.054 73.7536 171.06 90C171.044 111.785 162.385 132.675 146.983 148.082C131.581 163.489 110.695 172.156 88.9098 172.18V172.18ZM88.9098 8.77004C72.8364 8.76807 57.1234 13.533 43.7583 22.462C30.3932 31.3911 19.9764 44.0833 13.8253 58.9332C7.67432 73.7831 6.06543 90.1236 9.20217 105.888C12.3389 121.652 20.0804 136.132 31.4474 147.497C42.8144 158.861 57.2963 166.599 73.0615 169.732C88.8266 172.864 105.167 171.252 120.015 165.097C134.864 158.942 147.553 148.522 156.479 135.155C165.405 121.788 170.166 106.073 170.16 90C170.128 68.4628 161.557 47.817 146.326 32.5898C131.095 17.3625 110.447 8.79649 88.9098 8.77004V8.77004Z" fill="#012033"/>
<path d="M88.9099 152.51C76.5534 152.512 64.4738 148.85 54.1983 141.987C43.9229 135.124 35.9131 125.369 31.1817 113.954C26.4503 102.539 25.2098 89.9778 27.6171 77.858C30.0243 65.7382 35.9712 54.6044 44.7058 45.8642C53.4404 37.124 64.5704 31.17 76.6886 28.755C88.8069 26.34 101.369 27.5725 112.787 32.2965C124.205 37.0206 133.965 45.0241 140.835 55.2952C147.704 65.5662 151.374 77.6436 151.38 90.0001C151.369 106.569 144.786 122.456 133.074 134.175C121.362 145.895 105.478 152.489 88.9099 152.51V152.51ZM88.9099 29.7901C76.9943 29.7901 65.3463 33.3239 55.4393 39.9444C45.5322 46.565 37.8111 55.975 33.2526 66.9842C28.694 77.9933 27.5028 90.1071 29.8296 101.793C32.1564 113.48 37.8967 124.213 46.3244 132.637C54.7522 141.06 65.4887 146.795 77.1761 149.116C88.8635 151.437 100.977 150.24 111.984 145.676C122.99 141.112 132.397 133.386 139.012 123.476C145.628 113.565 149.156 101.916 149.15 90.0001C149.126 74.0335 142.771 58.7282 131.478 47.4409C120.185 36.1536 104.877 29.8059 88.9099 29.7901V29.7901Z" fill="#012033"/>
<path d="M88.911 147.65C120.734 147.65 146.531 121.853 146.531 90.03C146.531 58.2074 120.734 32.41 88.911 32.41C57.0884 32.41 31.291 58.2074 31.291 90.03C31.291 121.853 57.0884 147.65 88.911 147.65Z" fill="#D80038"/>
<path d="M133.2 123.33L123.26 112.52C122.872 112.09 122.344 111.814 121.77 111.74C120.9 111.633 120.091 111.239 119.47 110.62C118.857 109.867 118.346 109.036 117.95 108.15C117.268 106.642 116.342 105.257 115.21 104.05L115.29 103.2C115.511 103.197 115.724 103.116 115.89 102.97C116.14 102.73 116.22 101.91 115.89 101.74C115.56 101.57 115.41 101.74 115.41 101.74L115.57 100.22C115.589 100.021 115.565 99.8203 115.502 99.6308C115.438 99.4414 115.335 99.2674 115.2 99.1201L97.1999 79.5601L96.2999 80.5601C95.6991 81.2195 95.294 82.0332 95.1299 82.9101C95.0741 83.3532 94.8898 83.7703 94.5999 84.1101C94.3369 84.394 93.9834 84.5778 93.5999 84.6301L91.4199 86.9101L92.5199 88.1101V88.4101L97.0799 95.8301L97.6399 96.4401L97.1099 96.9401C97.032 97.0187 96.9762 97.1165 96.9481 97.2236C96.92 97.3307 96.9206 97.4433 96.9499 97.5501V97.5501C96.7704 97.672 96.6255 97.8383 96.5291 98.0328C96.4327 98.2273 96.3882 98.4433 96.3999 98.6601C96.3999 98.676 96.4062 98.6912 96.4175 98.7025C96.4287 98.7137 96.444 98.7201 96.4599 98.7201C96.4758 98.7201 96.4911 98.7137 96.5023 98.7025C96.5136 98.6912 96.5199 98.676 96.5199 98.6601C96.7199 97.7201 97.3999 98.1301 97.7299 98.4801L97.9799 98.7601C97.7383 99.0731 97.6149 99.4614 97.6313 99.8565C97.6478 100.252 97.8031 100.628 98.0699 100.92L101 104C101.223 104.249 101.519 104.421 101.846 104.492C102.173 104.562 102.514 104.526 102.82 104.39C102.956 104.579 103.034 104.804 103.045 105.036C103.055 105.269 102.998 105.499 102.88 105.7C102.4 106.56 101.5 108.1 100.52 109.81C99.5399 111.52 99.5199 111.65 98.7599 111.74C97.7599 111.87 97.1499 113.05 98.2399 113.74L99.1499 114.27L99.3599 114.39V114.46L99.5799 114.59H99.6999H99.7699V114.67L99.8899 114.74L99.9799 114.8L100.13 114.88L100.24 114.95H100.33V114.86L100.5 114.96H100.39L100.48 115.02L100.67 115.13V115.05L101.03 115.27C101.211 115.375 101.41 115.442 101.617 115.468C101.825 115.495 102.035 115.479 102.236 115.424C102.437 115.368 102.625 115.272 102.789 115.143C102.953 115.014 103.089 114.853 103.19 114.67C104.44 112.44 106.79 108.3 107.19 107.89C107.73 107.32 108.93 107.38 109.19 107.23C109.382 107.102 109.548 106.94 109.68 106.75L111.03 108.21C111.37 108.95 115.5 117.97 117.5 122.6C117.87 123.46 118.21 124.28 118.5 125.07C119.475 127.78 120.792 130.354 122.42 132.73L122.5 132.83C122.742 133.092 123.074 133.252 123.43 133.28C123.626 133.294 123.822 133.267 124.007 133.2C124.191 133.132 124.359 133.027 124.5 132.89L132.88 124.89C133.122 124.72 133.29 124.464 133.35 124.174C133.409 123.884 133.356 123.582 133.2 123.33ZM103 103.71C102.889 103.817 102.757 103.9 102.613 103.955C102.47 104.009 102.316 104.035 102.162 104.029C102.008 104.024 101.857 103.987 101.718 103.922C101.578 103.857 101.453 103.764 101.35 103.65L98.4799 100.53C98.2618 100.303 98.1399 100 98.1399 99.6851C98.1399 99.3701 98.2618 99.0673 98.4799 98.8401L100.47 97.0001L103.35 100.13C103.159 100.629 102.87 101.085 102.5 101.47C102.343 101.582 102.162 101.657 101.972 101.69C101.781 101.723 101.586 101.713 101.4 101.66C101.357 101.651 101.313 101.659 101.277 101.682C101.24 101.706 101.214 101.743 101.205 101.785C101.196 101.827 101.204 101.872 101.227 101.908C101.25 101.945 101.287 101.971 101.33 101.98C101.648 102.104 101.99 102.152 102.33 102.12C103.06 101.931 103.741 101.591 104.33 101.12L105.01 101.86L103 103.71Z" fill="#012033"/>
<path d="M65.9998 73.22C65.9998 73.22 65.9398 72.66 68.0598 77.95C70.1798 83.24 69.9198 85.45 71.8898 86.76C73.8598 88.07 76.1999 90.34 79.1199 91.85C82.0399 93.36 85.6599 93.85 88.9799 90.57C92.2999 87.29 98.4799 87.74 99.0499 87.65C100.18 87.47 100.82 88.81 101.98 88.57C103.14 88.33 107.21 85.63 108.85 88.47C110.49 91.31 111.27 91.14 111.24 92.99C111.293 93.7326 111.225 94.4789 111.04 95.2L110.43 93.84L109.6 95.12L109.94 97.87L108.41 96.47C108.41 96.47 107.11 98.17 107.61 99.27C108.11 100.37 110.01 99.01 111.19 100.85C112.37 102.69 112.19 101.28 112.19 101.28L111.8 99.52C111.8 99.52 114.07 101.33 113.99 102.58C113.91 103.83 115.38 105.58 113.68 106.43C111.98 107.28 109.05 107.5 109.09 109.2C109.13 110.9 107.45 111.02 106.73 111.78C106.01 112.54 98.7299 113.29 100.73 115.69C102.73 118.09 102.79 119.16 104.06 121.37C105.33 123.58 115.72 132.47 118.06 136.97C118.06 136.97 121.67 138.33 122.39 139.63C123.11 140.93 125.8 139.77 126.93 141.38C128.06 142.99 128.93 145.81 126.35 146.49C123.77 147.17 125.28 147.8 123.46 147.72C121.64 147.64 119.46 147.63 118.74 146.99C118.02 146.35 117.01 145.23 116.01 145.77C115.01 146.31 113.23 144.58 112.32 143.44C111.41 142.3 109.2 140.77 108.79 141.66C108.325 142.692 107.601 143.588 106.69 144.26C105.52 145.17 106.04 144.86 105.18 145.11C104.088 145.581 102.887 145.741 101.71 145.57C99.8298 145.34 98.1398 145.46 97.7098 144.44C97.4207 143.327 96.7014 142.373 95.7098 141.79C94.3398 140.94 93.6398 138.86 92.3198 139.1C90.9998 139.34 91.3198 139.54 90.3198 138.85C89.3198 138.16 84.6498 137.48 81.6298 137.47C78.6098 137.46 75.3199 138.66 73.4399 137.02C71.4836 135.037 69.8715 132.743 68.6698 130.23C68.0336 129.005 67.0849 127.97 65.9198 127.23C65.7198 127.06 67.7198 126.94 66.6098 124.16C65.4998 121.38 66.6999 119.6 63.6999 116.58C60.6999 113.56 55.7998 109.83 54.3498 106.2C54.3498 106.2 54.4298 108.01 53.0698 108.13C51.7098 108.25 49.9898 108.76 49.2598 106.94C48.7 105.472 48.4219 103.911 48.4398 102.34C48.3798 100.89 49.2299 98.8 48.7199 97.52C48.2099 96.24 46.7198 91.62 46.8898 90.2C47.0598 88.78 47.9598 87.08 46.8898 84.3C45.8198 81.52 44.2898 76.54 46.8198 73.91C49.3498 71.28 48.9299 68 52.0599 66.86C55.1899 65.72 55.8098 64.4 55.8798 62.66C56.324 59.0621 57.7217 55.6483 59.9282 52.7719C62.1347 49.8955 65.0698 47.6611 68.4298 46.3C79.2399 41.64 92.5498 50.02 89.4298 59.62C85.8998 70.39 74.3699 63.27 75.3299 61.2C76.2899 59.13 78.8698 62.59 82.7598 62.05C85.1098 61.72 87.8898 58.97 85.7598 53.62C83.6298 48.27 75.5399 47.29 72.4099 48.43C69.2799 49.57 63.7899 53.15 62.2399 58.85C60.6899 64.55 65.2398 67.42 66.3898 68.25C67.5398 69.08 71.6998 70 73.3898 74.25C75.0798 78.5 74.9999 81.14 74.1199 83.42C73.2399 85.7 73.5398 86.42 73.8798 87.31L74.2299 88.16L73.5099 88.03C72.4723 87.3907 71.5183 86.6248 70.6698 85.75" fill="#FFA400"/>
<path d="M65.9998 73.22C65.9998 73.22 65.9398 72.66 68.0598 77.95C70.1798 83.24 69.9198 85.45 71.8898 86.76C73.8598 88.07 76.1999 90.34 79.1199 91.85C82.0399 93.36 85.6599 93.85 88.9799 90.57C92.2999 87.29 98.4799 87.74 99.0499 87.65C100.18 87.47 100.82 88.81 101.98 88.57C103.14 88.33 107.21 85.63 108.85 88.47C110.49 91.31 111.27 91.14 111.24 92.99C111.293 93.7326 111.225 94.4789 111.04 95.2L110.43 93.84L109.6 95.12L109.94 97.87L108.41 96.47C108.41 96.47 107.11 98.17 107.61 99.27C108.11 100.37 110.01 99.01 111.19 100.85C112.37 102.69 112.19 101.28 112.19 101.28L111.8 99.52C111.8 99.52 114.07 101.33 113.99 102.58C113.91 103.83 115.38 105.58 113.68 106.43C111.98 107.28 109.05 107.5 109.09 109.2C109.13 110.9 107.45 111.02 106.73 111.78C106.01 112.54 98.7299 113.29 100.73 115.69C102.73 118.09 102.79 119.16 104.06 121.37C105.33 123.58 115.72 132.47 118.06 136.97C118.06 136.97 121.67 138.33 122.39 139.63C123.11 140.93 125.8 139.77 126.93 141.38C128.06 142.99 128.93 145.81 126.35 146.49C123.77 147.17 125.28 147.8 123.46 147.72C121.64 147.64 119.46 147.63 118.74 146.99C118.02 146.35 117.01 145.23 116.01 145.77C115.01 146.31 113.23 144.58 112.32 143.44C111.41 142.3 109.2 140.77 108.79 141.66C108.325 142.692 107.601 143.588 106.69 144.26C105.52 145.17 106.04 144.86 105.18 145.11C104.088 145.581 102.887 145.741 101.71 145.57C99.8298 145.34 98.1398 145.46 97.7098 144.44C97.4207 143.327 96.7014 142.373 95.7098 141.79C94.3398 140.94 93.6398 138.86 92.3198 139.1C90.9998 139.34 91.3198 139.54 90.3198 138.85C89.3198 138.16 84.6498 137.48 81.6298 137.47C78.6098 137.46 75.3199 138.66 73.4399 137.02C71.4836 135.037 69.8715 132.743 68.6698 130.23C68.0336 129.005 67.0849 127.97 65.9198 127.23C65.7198 127.06 67.7198 126.94 66.6098 124.16C65.4998 121.38 66.6999 119.6 63.6999 116.58C60.6999 113.56 55.7998 109.83 54.3498 106.2C54.3498 106.2 54.4298 108.01 53.0698 108.13C51.7098 108.25 49.9898 108.76 49.2598 106.94C48.7 105.472 48.4219 103.911 48.4398 102.34C48.3798 100.89 49.2299 98.8 48.7199 97.52C48.2099 96.24 46.7198 91.62 46.8898 90.2C47.0598 88.78 47.9598 87.08 46.8898 84.3C45.8198 81.52 44.2898 76.54 46.8198 73.91C49.3498 71.28 48.9299 68 52.0599 66.86C55.1899 65.72 55.8098 64.4 55.8798 62.66C56.324 59.0621 57.7217 55.6483 59.9282 52.7719C62.1347 49.8955 65.0698 47.6611 68.4298 46.3C79.2399 41.64 92.5498 50.02 89.4298 59.62C85.8998 70.39 74.3699 63.27 75.3299 61.2C76.2899 59.13 78.8698 62.59 82.7598 62.05C85.1098 61.72 87.8898 58.97 85.7598 53.62C83.6298 48.27 75.5399 47.29 72.4099 48.43C69.2799 49.57 63.7899 53.15 62.2399 58.85C60.6899 64.55 65.2398 67.42 66.3898 68.25C67.5398 69.08 71.6998 70 73.3898 74.25C75.0798 78.5 74.9999 81.14 74.1199 83.42C73.2399 85.7 73.5398 86.42 73.8798 87.31L74.2299 88.16L73.5099 88.03C72.4723 87.3907 71.5183 86.6248 70.6698 85.75" stroke="#012033" stroke-width="0.75" stroke-miterlimit="10"/>
<path d="M85.3292 105.18C85.3292 105.18 84.6392 107.54 86.1492 108.56C87.6592 109.58 86.7992 111.12 87.7292 112.85C88.1909 113.718 88.8116 114.492 89.5592 115.13C89.3792 115.05 89.3692 110.7 89.8492 112.27C90.3292 113.84 92.5592 113.27 93.6892 115.6C94.8192 117.93 94.8092 114.33 95.0792 114.41C95.3492 114.49 98.4592 114.56 99.7292 116.3C100.999 118.04 102.039 118.59 101.979 118.43C101.919 118.27 100.089 115.43 100.979 114.11C100.979 114.11 99.7992 115 99.0392 113.94C98.2792 112.88 94.8692 112.42 94.1592 110.66C94.1592 110.66 94.2492 113.98 94.0192 113.42C93.7892 112.86 92.2092 112.42 91.4892 111.17C90.7692 109.92 89.4892 107.24 89.6092 108.64C89.6924 109.336 89.5411 110.04 89.1792 110.64C88.6152 109.923 88.0911 109.175 87.6092 108.4C86.5892 106.88 86.3392 108.07 85.3292 105.18Z" fill="#012033"/>
<path d="M110.69 93.31C110.853 92.9326 110.967 92.5361 111.03 92.13C111.03 91.76 110.29 91.84 110.03 91.13C109.77 90.42 110.03 87.99 108.6 87.56C107.17 87.13 106.49 89.02 104.82 89.39C103.15 89.76 105.92 90 107.53 89.93C109.14 89.86 109.3 89.19 109.28 90.11C109.26 91.03 109.98 92.21 109.92 92.55C108.404 94.2097 106.699 95.6863 104.84 96.95C104.04 97.24 103.59 99.86 103.19 100.55C102.19 102.33 102.52 104.55 104.28 104.55C108.71 104.55 109.12 106.81 109.89 106.21C110.66 105.61 111.42 105.84 112.06 105.15C112.7 104.46 113.68 103.09 112.97 102.61C112.26 102.13 111.37 104.15 111.27 104.38C111.17 104.61 110.67 105.15 110.49 104.7C110.307 103.618 110.19 102.526 110.14 101.43L111.14 103.43C111.14 103.43 112.4 103.34 112 102.33C111.6 101.32 111.29 100.11 110.37 100.08C109.45 100.05 106.19 99.71 107.21 100.21C108.23 100.71 109.3 100.65 109.38 101.21C109.46 101.77 110.38 102.7 109.49 103.52C108.6 104.34 108 101.72 106.91 101.75C105.82 101.78 104.91 101.36 104.91 101.07C104.91 100.78 104.77 99.29 107.11 98.89C107.78 98.77 107.67 97.89 107.98 97.47C108.29 97.05 108.83 96.24 108.77 96.08C108.71 95.92 108.35 94.67 108.77 94.56C108.929 94.542 109.09 94.5626 109.24 94.62C109.389 94.6775 109.523 94.77 109.63 94.89L110.69 93.31Z" fill="#012033"/>
<path d="M100.27 92.49C99.7614 92.6076 99.2266 92.5215 98.7803 92.25C98.3199 91.9341 97.7679 91.7794 97.2103 91.81C96.9503 91.87 96.2103 93.25 95.2603 93.53C94.3103 93.81 94.0003 95.05 93.2603 94.85C92.532 94.7482 91.7919 94.7685 91.0703 94.91C91.8945 95.398 92.7984 95.7365 93.7403 95.91C94.1103 95.78 94.7403 95.8 94.9403 95.43C95.3296 94.9548 95.7651 94.5193 96.2403 94.13C96.8032 94.1175 97.366 94.161 97.9203 94.26C97.9203 94.26 99.1303 93.91 99.3403 93.47C99.5503 93.03 99.5603 92.52 100.27 92.49Z" fill="#012033"/>
<path d="M106.129 90.7401C106.129 90.7401 105.129 91.4701 105.819 91.4001C106.509 91.3301 106.369 90.6701 106.129 90.7401Z" fill="#012033"/>
<path d="M105 91.81C105 91.81 103.87 91.28 104.24 91.81C104.61 92.34 105.2 92 105 91.81Z" fill="#012033"/>
<path d="M103.379 92C103.379 92 102.239 91.47 102.609 92C102.979 92.53 103.539 92.22 103.379 92Z" fill="#012033"/>
<path d="M102.499 97.0601L102.109 97.6601L102.469 97.8901L102.709 97.1101L102.499 97.0601Z" fill="#012033"/>
<path d="M101.8 97.44L102.12 96.87L102.03 96.78L101.59 97.28L101.8 97.44Z" fill="#012033"/>
<path d="M101.841 96.55C101.366 95.8926 100.935 95.2044 100.551 94.49C100.568 95.1651 100.662 95.8361 100.831 96.49C100.975 96.7367 101.165 96.9538 101.391 97.13L101.841 96.55Z" fill="#012033"/>
<path d="M103.261 97.13L102.931 98.13H103.031C103.251 98.04 102.81 98.39 102.95 98.89C103.09 99.39 102.65 99.43 103.06 99.95C103.47 100.47 103.621 100.73 103.621 100.73L103.861 101.01L105.34 96.55C104.683 96.8551 103.981 97.051 103.261 97.13V97.13Z" fill="#012033"/>
<path d="M97.8302 92.78C97.8302 92.78 98.3202 93.37 97.8302 93.48C97.3402 93.59 97.5602 93.04 97.4602 92.88C97.3602 92.72 97.2202 92.8 97.1002 92.88C97.0369 93.0578 97.0369 93.2521 97.1002 93.43C97.1517 93.6069 97.2674 93.7583 97.4246 93.8545C97.5818 93.9506 97.7692 93.9847 97.9502 93.95C98.0291 93.9081 98.0989 93.8508 98.1553 93.7816C98.2118 93.7124 98.2538 93.6326 98.279 93.5468C98.3042 93.4611 98.3119 93.3712 98.3018 93.2825C98.2917 93.1937 98.264 93.1078 98.2202 93.03C98.1789 92.9333 98.1251 92.8426 98.0602 92.76C97.983 92.7512 97.9048 92.758 97.8302 92.78Z" fill="#E2DFD2"/>
<path d="M87.39 94.74C87.39 94.74 87.51 96.12 85.67 96.1C83.83 96.08 81.59 96.71 81.27 97.46C81.1666 97.9821 81.1884 98.5213 81.3336 99.0333C81.4787 99.5454 81.7431 100.016 82.105 100.406C82.4669 100.796 82.9161 101.095 83.4159 101.278C83.9156 101.462 84.4516 101.524 84.98 101.46C84.98 101.46 88.63 99.77 87.89 100.91C87.3636 101.815 86.5351 102.505 85.55 102.86C85.04 102.91 85.55 105.52 84.38 103.65C83.21 101.78 81.38 101.52 81.13 100.83C80.88 100.14 79.42 97.41 80.9 96.83C82.5674 96.2464 84.2948 95.8506 86.05 95.65C86.53 95.6 87 95.79 87.39 94.74Z" fill="#012033"/>
<path d="M89.1491 97.62C89.0622 97.921 89.0369 98.2364 89.0747 98.5474C89.1125 98.8584 89.2126 99.1586 89.3691 99.43C89.5352 99.7071 89.7795 99.929 90.0713 100.068C90.3631 100.206 90.6893 100.256 91.0091 100.21C91.5571 100.061 92.0241 99.7013 92.3091 99.21C92.4475 99.7737 92.6212 100.328 92.8291 100.87C93.0027 101.425 93.3041 101.932 93.7091 102.35C93.9241 102.56 94.1923 102.707 94.4848 102.776C94.7774 102.845 95.0831 102.832 95.3691 102.74C95.6156 102.626 95.8229 102.442 95.9652 102.211C96.1075 101.979 96.1784 101.711 96.1691 101.44C96.1383 100.902 95.9188 100.392 95.5491 100C95.2791 99.69 94.9591 99.42 94.7191 99.1C94.4425 98.7275 94.2793 98.283 94.2491 97.82C94.3916 98.2583 94.6549 98.6475 95.0087 98.9429C95.3625 99.2383 95.7924 99.4279 96.2491 99.49C96.8966 99.528 97.5453 99.4397 98.1591 99.23C97.4814 99.6855 96.6747 99.91 95.8591 99.87C96.1429 100.497 96.2732 101.183 96.2391 101.87C96.2042 102.228 96.0468 102.563 95.7935 102.818C95.5402 103.073 95.2066 103.233 94.8491 103.27C94.5833 103.268 94.3209 103.21 94.0791 103.1C93.4973 102.854 92.9819 102.474 92.5752 101.991C92.1685 101.508 91.882 100.935 91.7391 100.32C91.6191 100.32 91.5791 100.47 91.5191 100.58C91.4226 100.728 91.2851 100.844 91.1236 100.915C90.962 100.986 90.7832 101.009 90.6091 100.98C90.2665 100.944 89.9395 100.818 89.6618 100.614C89.3842 100.41 89.1658 100.136 89.0291 99.82C88.7689 99.1787 88.7689 98.4613 89.0291 97.82" fill="#012033"/>
<path d="M105.56 107.31C105.107 107.489 104.62 107.56 104.135 107.517C103.65 107.474 103.183 107.317 102.77 107.06C101.96 106.552 101.22 105.94 100.57 105.24C100.473 105.126 100.338 105.051 100.19 105.03C100.092 105.037 99.9985 105.072 99.9197 105.13C99.2097 105.58 98.9197 106.48 98.1797 106.9C97.5456 107.17 96.8354 107.202 96.1797 106.99C94.3029 106.511 92.675 105.344 91.6197 103.72C91.3777 103.871 91.093 103.937 90.8093 103.91C90.5257 103.883 90.2588 103.764 90.0497 103.57C89.6508 103.181 89.3523 102.7 89.1797 102.17C89.3056 102.678 89.5225 103.159 89.8197 103.59C89.976 103.81 90.1808 103.991 90.4184 104.12C90.656 104.248 90.9199 104.32 91.1897 104.33C91.2881 104.305 91.3912 104.305 91.4897 104.33C91.6098 104.405 91.7014 104.517 91.7497 104.65C92.1894 105.45 92.8396 106.114 93.6297 106.57C94.6663 107.274 95.8781 107.675 97.1297 107.73C97.7507 107.76 98.3698 107.64 98.9341 107.378C99.4983 107.117 99.9909 106.723 100.37 106.23C101.17 106.911 102.113 107.403 103.13 107.67C103.627 107.79 104.146 107.792 104.644 107.676C105.143 107.559 105.607 107.328 106 107" fill="#012033"/>
<path d="M99.37 94.47C99.413 94.7369 99.3773 95.0105 99.2672 95.2574C99.157 95.5043 98.9773 95.7137 98.75 95.86V95.86L98.87 95.79L99.11 95.65C99.3392 95.5056 99.5204 95.2964 99.6308 95.049C99.7411 94.8016 99.7757 94.527 99.73 94.26C99.73 94.26 99.55 94.36 99.54 94.37C99.473 94.4 99.4094 94.4369 99.35 94.48L99.37 94.47Z" fill="#012033"/>
<path d="M95.8092 92C95.4522 92.0753 95.0821 92.0598 94.7327 91.955C94.3833 91.8502 94.0657 91.6593 93.8092 91.4C93.8092 91.4 93.7392 91.33 93.6992 91.33C93.6592 91.33 93.5892 91.42 93.5792 91.49C93.5718 91.6429 93.6027 91.7952 93.669 91.9331C93.7354 92.0711 93.8351 92.1903 93.9592 92.28C94.0866 92.3746 94.2346 92.4375 94.3911 92.4636C94.5476 92.4897 94.708 92.4781 94.8592 92.43C95.0768 92.3563 95.2703 92.2249 95.4192 92.05" fill="#012033"/>
<path d="M96.7903 89.67C96.9375 89.7975 97.0567 89.9541 97.1403 90.13C97.1826 90.216 97.1976 90.3128 97.1833 90.4075C97.169 90.5022 97.1261 90.5903 97.0603 90.66C97.0234 90.6937 96.9753 90.7124 96.9253 90.7124C96.8753 90.7124 96.8272 90.6937 96.7903 90.66C96.7637 90.6287 96.7464 90.5906 96.7403 90.55C96.6528 90.3181 96.4956 90.119 96.2903 89.98C96.0761 89.8647 95.8558 89.7612 95.6303 89.67C95.6108 89.6761 95.5898 89.6761 95.5703 89.67C95.5703 89.62 95.5703 89.59 95.6403 89.57C95.7768 89.496 95.9267 89.45 96.0813 89.4345C96.2358 89.4191 96.3918 89.4345 96.5403 89.48C96.6327 89.5304 96.717 89.5945 96.7903 89.67V89.67Z" fill="#012033"/>
<path d="M98.219 90.29C98.0688 90.1628 97.9463 90.0063 97.859 89.83C97.8239 89.7381 97.8186 89.6375 97.8437 89.5424C97.8688 89.4474 97.9231 89.3626 97.999 89.3C98.0342 89.2669 98.0807 89.2485 98.129 89.2485C98.1773 89.2485 98.2238 89.2669 98.259 89.3C98.2884 89.3307 98.3091 89.3686 98.319 89.41C98.4028 89.6439 98.5609 89.8441 98.769 89.98C98.9832 90.0953 99.2035 90.1987 99.429 90.29C99.429 90.29 99.479 90.29 99.479 90.35C99.479 90.41 99.479 90.42 99.409 90.45C99.134 90.5912 98.8148 90.6199 98.519 90.53C98.4051 90.4691 98.3034 90.3877 98.219 90.29V90.29Z" fill="#012033"/>
<path d="M96.2402 107.37C96.4761 108.112 96.8819 108.788 97.4253 109.345C97.9687 109.903 98.6347 110.325 99.3702 110.58C100.118 110.836 100.922 110.878 101.693 110.702C102.463 110.525 103.169 110.137 103.73 109.58C103.592 109.783 103.413 109.956 103.205 110.087C102.997 110.218 102.763 110.304 102.52 110.34C102.027 110.417 101.524 110.393 101.04 110.27C100.28 110.152 99.5622 109.846 98.951 109.38C98.3397 108.913 97.8547 108.302 97.5402 107.6H96.5402" fill="#012033"/>
<path d="M110.06 107.85C110.3 107.74 109.54 107.91 109.28 107.85C108.329 107.612 107.454 107.134 106.74 106.46C106.524 106.214 106.238 106.039 105.92 105.96C105.757 105.95 105.594 105.95 105.43 105.96C105.014 105.989 104.6 105.872 104.26 105.63C105.009 106.036 105.635 106.638 106.07 107.37C105.892 107.772 105.573 108.095 105.174 108.279C104.775 108.463 104.322 108.495 103.9 108.37C104.218 108.809 104.64 109.162 105.13 109.394C105.619 109.627 106.159 109.732 106.7 109.7C106.517 110.08 106.256 110.417 105.934 110.689C105.612 110.962 105.236 111.163 104.83 111.28C104.587 111.307 104.359 111.412 104.18 111.58C104.397 111.776 104.652 111.926 104.929 112.021C105.206 112.116 105.499 112.153 105.79 112.13C106.082 112.105 106.366 112.019 106.622 111.878C106.879 111.736 107.103 111.543 107.28 111.31C107.28 111.31 108.94 111.25 109.09 110.31C109.24 109.37 109.58 108.08 110.06 107.85Z" fill="#012033"/>
<path d="M88.4008 91.06C88.3208 90.79 87.9508 90.68 87.8508 90.42C87.8258 90.3182 87.8258 90.2118 87.8508 90.11C87.9285 89.7458 88.1064 89.4106 88.3643 89.1421C88.6223 88.8735 88.9501 88.6823 89.3108 88.59C90.0579 88.4096 90.8404 88.4408 91.5708 88.68C91.5708 88.68 91.8508 88.68 91.6308 88.86C91.4108 89.04 88.4008 91.06 88.4008 91.06Z" fill="#FF7F00"/>
<path d="M88.5397 91C88.4613 90.8376 88.3403 90.6994 88.1897 90.6C88.1056 90.5274 88.0433 90.4329 88.0098 90.327C87.9762 90.221 87.9727 90.1078 87.9997 90C88.0866 89.5742 88.3245 89.1941 88.6697 88.93C88.6697 88.93 88.8297 88.8 88.8497 88.81H88.7597L88.9097 88.74C89.0122 88.6897 89.1194 88.6495 89.2297 88.62C89.5214 88.5517 89.8202 88.5182 90.1197 88.52C90.3783 88.5301 90.6358 88.5602 90.8897 88.61C91.1034 88.6244 91.3131 88.6751 91.5097 88.76C91.6697 88.85 91.3797 88.98 91.2997 89.03L90.7797 89.39L89.2597 90.39L88.2597 91.08C88.3497 91.01 88.4597 90.97 88.5497 90.91C89.3797 90.33 90.2097 89.75 91.0497 89.18L91.6197 88.79H91.6997C91.8197 88.7 91.7897 88.65 91.6997 88.61C91.1515 88.4328 90.5746 88.3615 89.9997 88.4C89.5478 88.4518 89.1135 88.6057 88.7297 88.85C88.275 89.065 87.9179 89.4435 87.7297 89.91C87.6726 90.0275 87.6481 90.1581 87.6586 90.2882C87.6692 90.4184 87.7145 90.5433 87.7897 90.65C87.9397 90.82 88.1597 90.92 88.2397 91.15C88.2397 91.13 88.5497 91 88.5397 91Z" fill="#012033"/>
<path d="M91.0005 93.39C90.9311 93.3145 90.8819 93.2226 90.8575 93.123C90.833 93.0234 90.834 92.9192 90.8605 92.82C90.9277 92.6282 91.0079 92.4411 91.1005 92.26C91.4805 91.45 91.4505 90.45 92.1005 89.8C92.4706 89.4614 92.934 89.2418 93.4305 89.17C92.7431 89.5475 92.2037 90.1468 91.9005 90.87C91.7827 91.1172 91.6791 91.371 91.5905 91.63L91.3005 92.37C91.151 92.6828 91.0692 93.0235 91.0605 93.37" fill="#012033"/>
<path d="M90.8299 90C90.6698 90.1851 90.5291 90.3862 90.4099 90.6L89.7799 91.6C89.5748 91.9044 89.4258 92.2431 89.3399 92.6C89.3076 92.8013 89.3166 93.0071 89.3664 93.2049C89.4163 93.4026 89.506 93.5881 89.6299 93.75C89.4136 93.5921 89.2369 93.3863 89.1137 93.1485C88.9905 92.9108 88.9242 92.6477 88.9199 92.38C88.9194 92.11 88.9836 91.8438 89.1072 91.6037C89.2307 91.3636 89.4099 91.1566 89.6299 91C89.7599 90.91 89.8899 90.83 90.0099 90.73C90.1299 90.63 90.4099 90.09 90.7599 89.98" fill="#012033"/>
<path d="M88.1001 94.11C87.9701 94.11 87.9201 93.93 87.9201 93.8C87.9015 93.2594 88.0293 92.7239 88.2901 92.25C88.1992 92.2335 88.1058 92.2365 88.0161 92.2589C87.9264 92.2813 87.8426 92.3226 87.7701 92.38C87.6325 92.5012 87.5291 92.6564 87.4701 92.83C87.366 93.0906 87.345 93.377 87.4101 93.65C87.4511 93.7857 87.5204 93.9112 87.6135 94.0181C87.7066 94.125 87.8213 94.2108 87.9501 94.27" fill="#012033"/>
<path d="M84.7007 93C84.3413 92.9256 83.9688 92.9444 83.6187 93.0547C83.2686 93.1649 82.9526 93.363 82.7007 93.63C82.2379 94.1592 81.7026 94.6204 81.1107 95C80.2758 95.2566 79.4129 95.4111 78.5407 95.46C76.8007 95.81 75.5407 97.21 74.3907 98.52C73.2407 99.83 72.3007 101 72.2707 102.52C72.2707 103.75 72.9007 104.97 72.5807 106.16C72.3307 107.1 71.5007 107.83 71.2507 108.78C70.9007 110.09 71.7307 111.52 71.3207 112.78C70.6844 110.815 70.7695 108.688 71.5607 106.78C71.7697 106.283 71.9174 105.763 72.0007 105.23C72.0907 104.23 71.6207 103.29 71.6307 102.31C71.6772 101.497 71.9283 100.71 72.3607 100.02C73.3754 98.3056 74.7887 96.8614 76.4808 95.81C77.254 95.297 78.1049 94.912 79.0007 94.67C79.6323 94.5521 80.2566 94.3985 80.8708 94.21C81.8708 93.84 82.7207 93.03 83.7907 92.98L84.7007 93Z" fill="#012033"/>
<path d="M101.75 119.69C102.4 121.54 102.64 123.09 101.44 124.69C100.98 125.3 100.44 125.82 99.9804 126.47C99.5204 127.12 99.2704 128.22 98.8204 129.06C98.7404 129.22 98.5704 129.4 98.3904 129.33C98.3282 129.289 98.2768 129.235 98.2404 129.17L97.1504 127.5C96.9009 127.074 96.591 126.687 96.2304 126.35C95.5692 125.882 94.8099 125.571 94.0104 125.44C93.0915 125.302 92.2293 124.911 91.5204 124.31C91.1659 123.858 90.8514 123.376 90.5804 122.87C90.0217 122.084 89.2439 121.48 88.344 121.133C87.4442 120.786 86.4621 120.712 85.5204 120.92C86.7703 121.305 87.8751 122.057 88.6904 123.08C89.0303 123.595 89.4224 124.075 89.8604 124.51C90.6004 125.14 91.7304 125.41 92.1704 126.26C90.6148 125.887 89.0928 125.385 87.6204 124.76C87.097 124.511 86.5467 124.323 85.9804 124.2C85.6955 124.136 85.4007 124.131 85.1136 124.184C84.8266 124.237 84.5534 124.348 84.3104 124.51C83.7204 124.95 83.4504 125.82 82.7204 125.97C82.2204 126.07 81.7204 125.78 81.2204 125.75C80.9192 125.751 80.6224 125.822 80.3533 125.957C80.0843 126.092 79.8505 126.289 79.6704 126.53C79.3252 127.005 79.0648 127.536 78.9004 128.1L80.5304 127.24C81.5304 126.7 82.8104 126.15 83.8704 126.64C84.2226 126.884 84.6206 127.054 85.0404 127.14C85.6104 127.14 86.0404 126.66 86.4804 126.36C87.1701 125.963 87.9847 125.841 88.7604 126.02C89.5241 126.203 90.2628 126.479 90.9604 126.84L93.6104 128.1C94.4588 128.476 95.2749 128.92 96.0504 129.43C98.0504 130.81 99.3004 132.99 101.4 134.19C102.242 134.576 103.057 135.017 103.84 135.51C104.501 136.082 105.065 136.757 105.51 137.51C105.18 135.84 103.89 134.51 102.79 133.17C101.69 131.83 100.69 130.17 101.11 128.51C101.53 126.85 103.22 125.68 103.27 124.01C103.244 123.315 103.07 122.633 102.76 122.01C102.4 121.13 101.97 119.62 101.97 119.62C101.97 119.62 101.51 119 101.75 119.69Z" fill="#012033"/>
<path d="M85.3793 124.53C84.7913 124.435 84.2286 124.223 83.725 123.905C83.2214 123.587 82.7875 123.17 82.4493 122.68C81.6793 121.29 82.2693 119.55 81.6993 118.08C81.4188 117.459 81.0482 116.883 80.5993 116.37C79.6245 115.239 78.8623 113.942 78.3493 112.54C78.0907 111.848 77.9888 111.106 78.0511 110.37C78.1133 109.633 78.3381 108.919 78.7093 108.28C78.2085 108.68 77.818 109.202 77.5748 109.795C77.3316 110.388 77.2437 111.033 77.3193 111.67C77.4884 112.944 78.0154 114.144 78.8393 115.13C79.6119 115.935 80.226 116.878 80.6493 117.91C80.8593 118.64 80.7893 119.41 80.9293 120.16C81.167 121.29 81.7674 122.312 82.6393 123.07C83.5236 123.847 84.5396 124.46 85.6393 124.88" fill="#012033"/>
<path d="M103.44 145.06C103.449 144.331 103.402 143.602 103.3 142.88C103.247 142.273 103.105 141.676 102.88 141.11C102.785 140.857 102.626 140.632 102.42 140.457C102.213 140.282 101.966 140.162 101.7 140.11C101.36 140.075 101.024 140.001 100.7 139.89C100.385 139.76 100.084 139.599 99.8002 139.41C99.7302 139.41 99.4702 139.67 99.4102 139.63C99.6835 139.81 99.9711 139.967 100.27 140.1C100.594 140.215 100.929 140.292 101.27 140.33C101.545 140.375 101.803 140.49 102.019 140.666C102.234 140.841 102.401 141.07 102.5 141.33C102.724 141.879 102.866 142.459 102.92 143.05C103.022 143.789 103.069 144.534 103.06 145.28C103.06 145.21 103.45 145.13 103.45 145.06H103.44Z" fill="#012033"/>
<path d="M102.869 138.06C103.009 138.35 103.389 138.43 103.679 138.51C103.969 138.59 104.329 138.63 104.679 138.69C105 138.728 105.307 138.844 105.573 139.027C105.84 139.21 106.058 139.454 106.209 139.74C106.482 140.371 106.615 141.053 106.599 141.74C106.636 142.602 106.593 143.466 106.469 144.32C106.469 144.23 106.839 144.19 106.849 144.1C106.981 143.264 107.028 142.416 106.989 141.57C106.998 140.884 106.865 140.203 106.599 139.57C106.446 139.299 106.231 139.067 105.973 138.894C105.714 138.72 105.418 138.609 105.109 138.57C104.769 138.5 104.419 138.46 104.109 138.37C103.799 138.28 103.449 138.21 103.309 137.92C103.309 137.92 102.919 138.13 102.919 138.15L102.869 138.06Z" fill="#012033"/>
<path d="M105 137.07C105.77 138.13 107.36 137.17 108.29 137.98C108.728 138.413 108.985 138.995 109.01 139.61C109.07 140.337 109.02 141.068 108.86 141.78C108.86 141.69 109.23 141.66 109.25 141.56C109.405 140.861 109.455 140.143 109.4 139.43C109.387 138.798 109.129 138.196 108.68 137.75C108.144 137.406 107.497 137.278 106.87 137.39C106.597 137.423 106.321 137.391 106.063 137.295C105.806 137.199 105.575 137.043 105.39 136.84C105.39 136.84 105.01 137.07 105 137.07V137.07Z" fill="#012033"/>
<path d="M92.1895 139.17C92.4165 139.067 92.6369 138.95 92.8494 138.82C93.0345 138.722 93.2088 138.605 93.3695 138.47C93.6811 138.209 93.9392 137.889 94.1294 137.53H94.0695L93.9395 137.61L93.7995 137.69H93.7394C93.591 137.978 93.3987 138.241 93.1694 138.47C93.0587 138.581 92.9382 138.681 92.8094 138.77L92.6994 138.84C92.9094 138.72 92.9695 138.68 92.8895 138.72L92.6495 138.84C92.5095 138.89 92.3995 139 92.2595 139.06L92.1895 139.17Z" fill="#012033"/>
<path d="M122 143.69C122.44 143.88 122.94 143.78 123.38 143.99C123.797 144.172 124.147 144.479 124.38 144.87C124.615 145.28 124.746 145.741 124.764 146.213C124.781 146.685 124.684 147.154 124.48 147.58C124.48 147.58 124.63 147.49 124.67 147.47C124.71 147.45 124.84 147.4 124.86 147.35C125.065 146.926 125.164 146.459 125.149 145.989C125.133 145.518 125.003 145.059 124.77 144.65C124.555 144.276 124.235 143.974 123.85 143.78C123.4 143.56 122.85 143.66 122.43 143.47C122.43 143.47 122.26 143.56 122.24 143.58C122.22 143.6 122.07 143.7 122.05 143.69H122Z" fill="#012033"/>
<path d="M128 142.34C127.696 141.943 127.323 141.605 126.9 141.34C126.392 141.109 125.82 141.059 125.28 141.2C124.37 141.37 123.28 141.75 122.49 141.08C122.49 141.08 122.14 141.34 122.1 141.31C122.9 141.97 123.98 141.59 124.89 141.42C125.419 141.293 125.975 141.335 126.48 141.54C126.913 141.803 127.296 142.141 127.61 142.54C127.61 142.54 127.98 142.29 128 142.32V142.34Z" fill="#012033"/>
<path d="M111.129 140.63C112.459 141.28 113.259 142.56 114.259 143.63C114.465 143.914 114.747 144.135 115.072 144.268C115.397 144.4 115.753 144.439 116.099 144.38C116.321 144.321 116.526 144.211 116.699 144.061C116.873 143.91 117.009 143.721 117.099 143.51C117.099 143.61 116.739 143.63 116.709 143.74C116.683 143.866 116.625 143.984 116.539 144.08L116.409 144.2C116.569 144.13 116.599 144.1 116.519 144.14H116.419C116.172 144.22 115.906 144.22 115.659 144.14C115.085 143.86 114.587 143.445 114.209 142.93C113.481 141.94 112.568 141.101 111.519 140.46C111.439 140.46 111.199 140.71 111.129 140.68V140.63Z" fill="#012033"/>
<path d="M114.809 132.21C114.024 131.474 113.004 131.038 111.929 130.98C110.872 130.932 109.812 130.958 108.759 131.06C107.702 131.157 106.636 131.034 105.629 130.7C107.387 131.313 109.221 131.683 111.079 131.8C112.296 131.892 113.476 132.261 114.529 132.88C115.092 133.348 115.683 133.783 116.299 134.18C115.898 133.548 115.447 132.949 114.949 132.39L114.809 132.21Z" fill="#012033"/>
<path d="M110.58 127.75C109.599 127.027 108.395 126.673 107.18 126.75C106.66 126.75 106.18 126.88 105.63 126.87C105.379 126.882 105.128 126.844 104.892 126.756C104.657 126.668 104.442 126.534 104.26 126.36C105.054 126.95 106.02 127.262 107.01 127.25C108.011 127.248 109.006 127.404 109.96 127.71C110.442 127.942 110.896 128.231 111.31 128.57C111.13 128.237 110.872 127.953 110.56 127.74L110.58 127.75Z" fill="#012033"/>
<path d="M117.4 135.4C116.67 134.7 116.15 134.82 115.15 134.76C114.144 134.786 113.138 134.698 112.15 134.5C112.833 134.83 113.542 135.101 114.27 135.31C114.8 135.46 115.33 135.58 115.85 135.76C116.745 136.116 117.6 136.566 118.4 137.1C118.329 136.629 118.144 136.183 117.86 135.8L117.4 135.4Z" fill="#012033"/>
<path d="M79.0894 91.61C78.6525 92.0225 78.134 92.3388 77.5673 92.5386C77.0007 92.7384 76.3984 92.8173 75.7994 92.77C74.872 92.635 73.9366 92.5615 72.9994 92.55C72.1583 92.5753 71.3438 92.8503 70.6594 93.34C69.9625 94.1231 69.3273 94.9589 68.7594 95.84C66.5094 98.96 67.9594 100.76 67.9594 104.63C67.9594 105.88 68.4694 106.97 68.3494 108.21C68.1594 110.11 65.1394 111.21 65.7394 112.98C64.6694 107.88 68.0494 110.87 67.0094 104.36C66.7294 102.59 65.4594 99.78 67.7094 95.91C68.447 94.3271 69.6554 93.0104 71.1694 92.14C71.396 91.9289 71.6901 91.8049 71.9994 91.79C72.5294 91.79 75.3494 91.7 75.8594 91.86C76.7094 92.12 77.7394 90.63 78.4594 91.17L79.0894 91.61Z" fill="#012033"/>
<path d="M75.7108 89.24C74.6302 89.5663 73.5317 89.8301 72.4208 90.03C71.7008 90.03 66.0008 89.78 65.1108 91.26C64.2208 92.74 62.0208 93.83 62.1108 96.26C62.2008 98.69 60.3508 101.16 60.6508 103.74C61.0691 105.911 61.7754 108.016 62.7508 110C62.7508 110 61.1808 108.91 60.3308 104.89C59.4808 100.87 61.2608 98.46 61.0908 96.89C61.0709 96.0604 61.2313 95.2365 61.5611 94.4751C61.8909 93.7136 62.3821 93.0329 63.0008 92.48C64.0008 91.71 63.5608 90.48 64.5008 90.06C66.5526 89.3247 68.7406 89.0482 70.9108 89.25C71.5031 89.3647 72.1128 89.3555 72.7014 89.2229C73.29 89.0904 73.8448 88.8375 74.3308 88.48L75.7108 89.24Z" fill="#012033"/>
<path d="M69.8297 93.14C69.8297 93.14 65.8297 94 65.5397 95.72C65.2497 97.44 63.7397 100.17 63.6297 101.03C63.4244 102.276 63.3941 103.545 63.5397 104.8C63.7897 105.72 63.5397 108.71 64.1597 110.68C64.1597 110.68 63.9697 107.22 63.9797 106.77C63.9897 106.32 63.7797 103.99 63.7997 103.45C63.831 102.535 64.017 101.633 64.3497 100.78C64.6797 100.2 65.3497 98.58 65.6197 97.99C65.8811 97.3835 66.0594 96.7443 66.1497 96.09C66.2797 95.19 68.3497 93.9 68.8697 94.21C69.3897 94.52 69.8297 93.14 69.8297 93.14Z" fill="#012033"/>
<path d="M70.8803 85.9101C70.8803 85.9101 69.3604 84.8401 67.0504 87.1501C66.5404 87.6501 61.6003 84.8201 60.9503 87.0801C60.3003 89.3401 58.3403 90.4601 58.0503 93.0801C57.7675 94.8294 57.6204 96.598 57.6103 98.3701C57.6803 99.6401 56.9003 102.87 57.0903 104.74C57.0903 104.74 56.3703 103.66 56.7603 100.74C57.1503 97.8201 57.1103 93.2101 57.4803 91.7401C57.8503 90.2701 59.0003 89.6001 59.3003 88.5601C59.6003 87.5201 59.9104 84.1301 61.4904 84.3401C63.0704 84.5501 65.7903 86.1701 66.3203 85.4901C66.8503 84.8101 68.6404 82.5801 70.3704 84.9901C71.0704 86.0001 70.8803 85.9101 70.8803 85.9101Z" fill="#012033"/>
<path d="M82.2398 107.35C82.2398 107.35 81.5498 106.6 82.6798 108.81C83.8098 111.02 82.1598 115.81 83.2098 116.34C84.2598 116.87 88.5298 117.57 90.0398 118.82C91.5498 120.07 92.3498 121.54 93.8598 122.82C95.3698 124.1 96.2198 123.61 97.1398 124.72C98.0598 125.83 97.8598 129.59 97.9698 129.95C98.0798 130.31 99.1298 126.1 98.2298 124.02C97.3298 121.94 94.5698 123.2 94.0098 121.49C93.4498 119.78 91.0098 117.42 89.5998 117.38C88.1898 117.34 84.0798 117.27 84.1198 115.58C84.1598 113.89 84.3198 112.13 84.2398 110.67C84.1598 109.21 82.2398 107.35 82.2398 107.35Z" fill="#012033"/>
<path d="M69.2906 80.53C69.2906 80.53 68.0606 79.65 65.4306 80.53C62.8006 81.41 63.2206 80.78 60.6606 81.08C58.1006 81.38 55.5306 82.22 55.4706 84.71C55.4767 86.3262 55.4 87.9417 55.2406 89.55C54.8279 91.4785 54.64 93.4483 54.6806 95.42L54.5606 100.69C54.5606 100.69 54.1306 93.76 54.1706 91.95C54.2106 90.14 54.4006 89.65 54.4306 88.68C54.4606 87.71 54.3506 81.89 55.5506 81.56C56.7506 81.23 59.4506 79.65 60.7506 79.99C62.0506 80.33 62.8106 80.77 63.8306 80.25C64.8506 79.73 68.1106 77.53 69.2906 80.53Z" fill="#012033"/>
<path d="M51.0008 81.08C51.0008 81.08 49.5408 82.22 50.6408 84.71C51.3517 86.7635 51.6903 88.9274 51.6408 91.1L52.0208 90.1L52.5208 87.84C52.3976 88.7794 52.4348 89.733 52.6308 90.66C52.9875 91.813 53.1695 93.013 53.1708 94.22C53.1338 94.5964 53.1732 94.9764 53.2866 95.3373C53.4 95.6981 53.5851 96.0324 53.8308 96.32V97.96C53.6177 99.0363 53.4741 100.125 53.4008 101.22C53.4608 102.13 54.6608 104.16 55.1408 102.54C55.4417 101.53 55.6756 100.501 55.8408 99.46C56.0548 100.818 56.0209 102.204 55.7408 103.55C55.3991 104.884 55.2178 106.253 55.2008 107.63C55.2008 108.09 54.3508 106.16 54.2008 105.52C54.0081 104.128 53.5892 102.777 52.9608 101.52C51.7808 98.86 50.7608 96.65 50.8908 95.29C51.0562 93.7525 51.123 92.206 51.0908 90.66C51.0141 88.8544 50.6772 87.0693 50.0908 85.36C50.0908 85.36 48.7908 81.3 51.0008 81.08Z" fill="#012033"/>
<path d="M81.6892 94.48C81.6892 94.48 80.4492 94.09 80.3092 96.27C80.1692 98.45 78.1992 98.76 77.4692 99.47C76.7392 100.18 75.0092 101.68 75.6192 106.24C75.6192 106.24 74.4092 100.94 75.6892 99.42C76.4691 98.5018 77.4288 97.7531 78.5092 97.22C78.7792 97.05 80.0992 93.81 81.6892 94.48Z" fill="#012033"/>
<path d="M81.6704 137.47C80.8982 136.065 80.6233 134.441 80.8904 132.86C81.4804 130.7 82.3804 130.02 82.7104 129.97C83.0404 129.92 79.5904 133.62 82.8904 137.34L81.6704 137.47Z" fill="#012033"/>
<path d="M86.7303 137.8C86.3496 136.887 86.2674 135.877 86.4955 134.914C86.7236 133.951 87.2503 133.085 88.0003 132.44C90.6803 130.19 90.6903 130.62 90.6903 130.62C89.9659 131.228 89.3268 131.931 88.7903 132.71C88.6357 133.24 88.5483 133.788 88.5303 134.34C88.5303 134.55 87.9503 135.42 88.0503 135.99C88.1503 136.56 88.3703 137.29 88.4503 137.64C88.5303 137.99 88.6603 138.44 88.6603 138.44L86.7303 137.8Z" fill="#012033"/>
<path d="M102.481 143C102.481 143 104.481 143.69 104.481 144.6C104.53 145.434 104.674 146.259 104.911 147.06C104.911 147.06 103.191 144.52 102.571 144.51C101.951 144.5 102.481 143 102.481 143Z" fill="#012033"/>
<path d="M105.549 141.27C105.549 141.27 107.549 141.95 107.549 142.86C107.599 143.697 107.743 144.526 107.979 145.33C107.979 145.33 106.259 142.78 105.639 142.77C105.019 142.76 105.549 141.27 105.549 141.27Z" fill="#012033"/>
<path d="M108.391 139.7C108.391 139.7 110.391 140.39 110.391 141.3C110.44 142.134 110.584 142.959 110.821 143.76C110.821 143.76 109.101 141.22 108.481 141.2C107.861 141.18 108.391 139.7 108.391 139.7Z" fill="#012033"/>
<path d="M123.939 145.09C123.939 145.09 125.939 145.78 125.939 146.68C125.984 147.517 126.128 148.347 126.369 149.15C126.369 149.15 124.649 146.61 124.019 146.59C123.389 146.57 123.939 145.09 123.939 145.09Z" fill="#012033"/>
<path d="M127.199 143C127.199 143 129.339 142.92 129.629 143.78C129.969 144.541 130.391 145.262 130.889 145.93C130.889 145.93 128.399 144.17 127.809 144.37C127.219 144.57 127.199 143 127.199 143Z" fill="#012033"/>
<path d="M127.189 141.62C127.189 141.62 128.739 141.56 128.949 142.18C129.191 142.734 129.496 143.257 129.859 143.74C129.859 143.74 128.049 142.46 127.629 142.62C127.209 142.78 127.189 141.62 127.189 141.62Z" fill="#012033"/>
<path d="M50.209 109.15V107.56C50.2897 106.966 50.568 106.417 50.999 106L51.209 106.55V107.87C51.129 108.13 50.209 109.15 50.209 109.15Z" fill="#012033"/>
<path d="M53.9994 108.64L53.3094 107.22C53.0888 106.669 53.0571 106.061 53.2194 105.49L53.6494 105.88L54.2194 107.06C54.2226 107.595 54.1485 108.127 53.9994 108.64V108.64Z" fill="#012033"/>
<path d="M52.0005 103C52.0005 103 51.9405 102.57 51.8505 103.66C51.8024 104.446 51.8024 105.234 51.8505 106.02L52.3305 108.16" stroke="#012033" stroke-miterlimit="10"/>
<path d="M82.9989 65.3C81.656 65.4265 80.3018 65.2496 79.0365 64.7822C77.7712 64.3149 76.6272 63.5691 75.6889 62.6C75.6889 62.6 74.6889 61.06 75.7489 60.69C76.0409 60.5751 76.3573 60.5359 76.6685 60.5761C76.9797 60.6163 77.2757 60.7346 77.5289 60.92C78.8914 61.4049 80.2844 61.7991 81.6989 62.1C82.2773 62.0976 82.8539 62.0339 83.4189 61.91C83.5689 61.78 84.1189 62.75 84.0489 63.22C83.9789 63.69 84.0589 65.52 82.9989 65.3Z" fill="#012033"/>
<path d="M85 61C85 61 86 59.68 87.5 61.88C87.5 61.88 87.27 60.03 85.96 60.04" fill="#012033"/>
<path d="M57 58.06C57 58.06 58.85 56.72 59.84 57.06C60.83 57.4 62.12 57.99 62.14 58.67L62.79 56.92C62.79 56.92 62.36 55.61 61.45 55.56C60.54 55.51 59.32 54.79 58.52 55.2" fill="#012033"/>
<path d="M60.7305 51.89C61.1088 51.6537 61.562 51.5681 62.0005 51.65C62.3468 51.6487 62.6885 51.7307 62.9965 51.889C63.3046 52.0474 63.57 52.2776 63.7705 52.56C63.9305 52.92 64.5805 53.22 64.5705 53.76C64.5605 54.3 64.8605 53.76 64.8605 53.76C64.8605 53.76 65.0305 52.4 64.4605 51.91C64.0597 51.5047 63.6172 51.1427 63.1405 50.83C62.8505 50.7 61.6505 50.67 61.5405 50.94C61.3006 51.2812 61.0294 51.5993 60.7305 51.89V51.89Z" fill="#012033"/>
<path d="M64.7305 48.48C64.7305 48.48 65.6505 48.24 65.9905 48.86C66.3305 49.48 66.6205 49.69 66.6705 50.04C66.7205 50.39 66.8905 50.79 66.8905 50.98V51.68L67.4805 51.12L67.3905 49.69C67.3905 49.69 66.8105 48.84 66.5605 48.51C66.3109 48.2024 65.9531 48.002 65.5605 47.95C65.1905 47.94 64.7305 48.48 64.7305 48.48Z" fill="#012033"/>
<path d="M86.4804 56C86.7372 55.6398 87.0813 55.3507 87.4804 55.16C87.811 55.0993 88.1498 55.0993 88.4804 55.16C88.8949 55.1721 89.3057 55.2428 89.7004 55.37C89.7604 55.46 89.4004 54.04 89.4004 54.04C89.4004 54.04 88.6704 53.89 88.4004 53.86C88.1304 53.83 87.5604 53.56 87.1504 53.8C86.8276 54.0092 86.5377 54.2653 86.2904 54.56C86.252 54.9774 86.2722 55.3982 86.3504 55.81L86.4804 56Z" fill="#012033"/>
<path d="M79.2504 48.57C79.2504 48.5 78.9104 47.5 79.4604 47.19C79.8552 46.9347 80.2121 46.625 80.5204 46.27C80.7967 46.1047 81.1233 46.0443 81.4404 46.1C81.5504 46.1 82.4404 46.54 82.5404 46.58C82.7914 46.7187 83.0097 46.9097 83.1804 47.14C83.1804 47.22 82.5504 47.29 82.3604 47.59C82.1806 47.9766 82.0593 48.3878 82.0004 48.81C82.0004 48.96 81.9304 49.22 81.9204 49.43C81.9104 49.64 81.1704 49.33 81.1704 49.33C81.1704 49.33 80.7104 48.95 80.7304 48.76C80.7504 48.57 81.2104 47.5 81.2104 47.5C81.2104 47.5 81.3104 47.2 81.0604 47.19C80.8104 47.18 80.6204 47.19 80.4804 47.41C80.3404 47.63 80.2204 47.73 80.2204 47.97C80.2204 48.21 80.2204 48.36 80.2204 48.44C80.1814 48.5306 80.1346 48.6176 80.0804 48.7L79.2504 48.57Z" fill="#012033"/>
<path d="M69.7206 45.77C69.7206 45.77 70.0106 45.48 70.4406 46.06C70.7039 46.3736 70.9073 46.7329 71.0406 47.12C71.1506 47.37 71.3206 47.69 71.5206 47.7H72.2106H72.6506C72.8706 47.7 73.1406 46.94 73.1406 46.85C73.1406 46.76 73.2006 46.1 73.2106 45.85C73.2206 45.6 73.2106 45.26 73.0906 45.19C72.8144 45.134 72.5316 45.1171 72.2506 45.14C72.1306 45.14 71.8706 45.14 72.0806 45.57C72.201 45.8255 72.2916 46.0939 72.3506 46.37V46.69C72.3506 46.85 71.6206 46.69 71.6206 46.69C71.6206 46.69 71.2806 46.07 71.2106 45.93C71.0952 45.7695 70.9491 45.6335 70.7806 45.53C70.6706 45.46 70.2106 45.13 69.6406 45.76" fill="#012033"/>
<path d="M86.4191 49.53C86.4191 49.53 85.3291 49.66 85.1291 50.29C85.0389 50.5821 84.9252 50.8663 84.7891 51.14L85.1891 51.03C85.1891 51.03 85.7191 50.6 85.8991 50.5C86.0791 50.4 85.9891 50.42 86.5191 50.35C86.7245 50.3309 86.9283 50.2975 87.1291 50.25L86.4191 49.53Z" fill="#012033"/>
<path d="M52.4105 83.94C52.4105 83.94 52.2505 80.78 53.3505 79.29C54.4505 77.8 55.9905 75.72 56.8905 75.38C57.7905 75.04 58.5305 76.15 60.6905 75.38C62.8505 74.61 64.1005 74.13 64.1005 74.13C64.8435 74.2523 65.5758 74.4329 66.2905 74.67C66.769 75.3638 67.2064 76.085 67.6005 76.83C67.6005 76.83 65.8005 75.03 64.2005 75.11C63.2118 75.1473 62.2387 75.3677 61.3305 75.76C60.8254 75.8983 60.3041 75.9689 59.7805 75.97C59.5505 75.97 57.3405 76.45 57.0405 76.5C56.4425 76.7099 55.877 77.0028 55.3605 77.37C54.4733 78.5116 53.6839 79.7259 53.0005 81C52.8905 81.28 52.4105 83.94 52.4105 83.94Z" fill="#012033"/>
<path d="M51.8008 76.42C52.3476 75.5243 53.0213 74.7126 53.8008 74.01C54.6565 73.4651 55.475 72.8638 56.2508 72.21C56.2508 72.21 56.7708 71.13 57.5708 71.11C58.4826 71.024 59.3387 70.6329 60.0008 70C60.4608 69.47 62.3708 71.47 63.8808 71.73C65.3908 71.99 66.0908 72.15 66.0908 72.15C66.0908 72.15 64.6008 71.34 64.4708 71.25C63.5847 70.8656 62.7541 70.3645 62.0008 69.76C61.8407 69.4945 61.6242 69.2674 61.3668 69.0946C61.1094 68.9218 60.8172 68.8076 60.5108 68.76C59.7943 68.8617 59.1104 69.125 58.5108 69.53C58.1508 69.8 57.7508 69.38 56.8008 70.08C56.0456 70.6131 55.3719 71.2531 54.8008 71.98C54.3908 72.44 51.8008 74.55 51.8008 76.42Z" fill="#012033"/>
<path d="M54.0707 68.8799C54.0707 68.8799 54.6607 68.4899 55.3407 68.1399C56.0207 67.7899 56.5307 66.8499 57.2907 66.7399C58.0507 66.6299 58.2307 66.3899 58.8507 66.5899C59.7384 66.6796 60.6329 66.6796 61.5207 66.5899C62.2807 66.5899 64.1007 68.4299 64.4607 68.6599C64.8898 69.1905 65.4979 69.5461 66.1707 69.6599C67.0622 69.8857 67.9222 70.2217 68.7307 70.6599C67.9023 70.1283 67.0329 69.6635 66.1307 69.2699C64.7707 68.6899 64.4307 67.6399 64.1307 67.3599C63.6265 66.7643 62.9536 66.3354 62.2007 66.1299C61.4602 66.0493 60.7154 66.0159 59.9707 66.0299C59.361 66.0064 58.7532 65.9463 58.1507 65.8499C57.7107 65.7399 57.1507 65.2799 56.4107 65.9799C55.6707 66.6799 54.6007 67.2999 54.4107 67.6199C54.0675 68.1936 53.6653 68.7299 53.2107 69.2199C52.7326 69.8637 52.3922 70.5989 52.2107 71.3799C51.8607 72.1499 53.5807 69.2299 54.0707 68.8799Z" fill="#012033"/>
<path d="M62.8702 64.74C62.3634 64.3042 61.7601 63.9957 61.1102 63.84C60.2502 63.73 59.5402 63.84 59.1102 63.52C58.6802 63.2 58.0002 62.71 58.0002 62.71L56.6602 63.1C57.1307 62.7459 57.6736 62.5 58.2502 62.38C59.0202 62.28 59.5702 63.02 59.7102 63.08C60.1079 63.2337 60.5352 63.2953 60.9602 63.26C61.2899 63.2775 61.6113 63.3694 61.9005 63.5287C62.1897 63.688 62.4392 63.9107 62.6302 64.18C62.6558 64.3855 62.739 64.5797 62.8702 64.74V64.74Z" fill="#012033"/>
<path d="M56.1689 60.66C56.3789 60.45 57.3489 59.47 57.9189 59.46C58.4889 59.45 59.8489 59.17 59.9989 59.15C60.1489 59.13 60.5089 58.98 61.3489 59.82C61.3489 59.82 60.9389 59.18 59.5289 59.6C58.1189 60.02 58.0889 59.6 57.3589 60.44C56.6289 61.28 56.2889 61.57 56.2289 61.84C56.135 62.1096 56.0179 62.3706 55.8789 62.62L56.1689 60.66Z" fill="#012033"/>
<path d="M69.2793 69.58C69.4907 70.0374 69.6613 70.5126 69.7893 71C69.9653 71.8859 70.0557 72.7867 70.0593 73.69C70.0593 74.33 70.6793 75.07 70.5693 76.43C70.4593 77.79 70.4293 79.43 70.4293 79.43C70.4293 79.43 71.1393 75.76 71.1493 75.31C71.1593 74.86 70.7793 73.57 70.7193 73.11C70.6593 72.65 70.3193 71.11 70.2993 70.74C70.2793 70.37 69.2793 69.58 69.2793 69.58Z" fill="#012033"/>
<path d="M72.1595 74.13C72.2164 74.7954 72.2164 75.4645 72.1595 76.13C72.0158 76.9166 71.805 77.6894 71.5294 78.44C71.2976 79.1249 71.1597 79.838 71.1195 80.56C71.0357 81.014 70.8911 81.4547 70.6895 81.87C71.358 81.0937 71.8372 80.1729 72.0894 79.18C72.1556 78.3392 72.2962 77.506 72.5095 76.69C72.6495 76.01 72.7694 74.69 72.7694 74.69L71.9995 72C71.9995 72 71.6195 72.21 72.1595 74.13Z" fill="#012033"/>
<path d="M74.1091 76C73.9732 76.8596 73.923 77.7305 73.9591 78.6C74.0991 79.24 74.2491 80.21 73.8291 80.6C73.4091 80.99 73.5691 81.17 72.9391 81.85C72.6327 82.066 72.3822 82.352 72.2083 82.6841C72.0344 83.0163 71.9421 83.3851 71.9391 83.76C71.9391 84.76 71.8691 85.4 71.8691 85.4C71.8691 85.4 71.3691 83.81 72.3691 83.05C73.3691 82.29 73.8591 81.57 73.8691 81.3C73.9916 80.8588 74.1385 80.4248 74.3091 80C74.3091 79.79 74.3791 78.37 74.3891 78.28C74.3991 78.19 74.1091 76 74.1091 76Z" fill="#012033"/>
<path d="M55.759 71.2C54.6184 71.5137 53.5127 71.9425 52.459 72.48C52.269 72.81 51.319 74.12 51.319 74.12C50.6226 74.214 49.9889 74.572 49.549 75.12C49.1042 75.8953 48.7837 76.7354 48.599 77.61C48.529 77.88 47.939 77.68 47.969 78.99C48.0294 79.8948 48.1362 80.796 48.289 81.69C47.6939 80.4002 47.4721 78.9694 47.649 77.56C47.9844 76.6693 48.4029 75.8122 48.899 75C48.9382 74.8056 49.0296 74.6255 49.1636 74.4793C49.2975 74.333 49.4688 74.2261 49.659 74.17C50.109 73.97 50.729 73.95 50.919 73.63C51.3521 72.9569 51.8772 72.3477 52.479 71.82C52.779 71.7 55.759 71.2 55.759 71.2Z" fill="#012033"/>
<path d="M52.9 68C52.9 68 52.9 68.52 51.8 69.37C51.1501 69.7812 50.6707 70.4133 50.45 71.15C50.4388 71.3309 50.3893 71.5073 50.3048 71.6676C50.2204 71.8279 50.1028 71.9685 49.96 72.08C49.56 72.31 48.67 72.56 48.42 72.95C48.17 73.34 47.1 73.59 46.95 73.61C46.8 73.63 47.87 72.61 47.87 72.61C47.87 72.61 49.25 71.92 49.52 71.84C49.79 71.76 49.97 70.39 50.18 70.16C50.39 69.93 52.54 68.3 52.9 68Z" fill="#012033"/>
<path d="M46.209 82.11C46.209 82.11 47.209 84.68 48.019 84.82C48.2803 84.8592 48.5208 84.985 48.7022 85.1772C48.8835 85.3694 48.995 85.6168 49.019 85.88C48.9122 86.5346 48.9883 87.2059 49.239 87.82C49.5302 88.348 49.7105 88.9299 49.769 89.53C49.743 89.2634 49.661 89.0053 49.5283 88.7727C49.3956 88.54 49.2152 88.338 48.999 88.18C48.7219 87.9653 48.4964 87.6913 48.3389 87.3781C48.1815 87.0649 48.0961 86.7205 48.089 86.37C48.089 85.95 47.319 85.2 47.319 85.2C46.761 84.2475 46.3846 83.1998 46.209 82.11V82.11Z" fill="#012033"/>
<path d="M47.2305 88.58C47.2305 88.58 46.8005 89.88 47.7205 90.32C48.1752 90.5778 48.574 90.9237 48.8933 91.3375C49.2127 91.7514 49.4463 92.2247 49.5805 92.73C49.5437 93.457 49.4669 94.1814 49.3505 94.9C49.3505 95.13 49.7705 94.32 48.7805 92.66C48.3792 91.7986 47.7877 91.0395 47.0505 90.44C46.6605 90.11 47.2305 88.58 47.2305 88.58Z" fill="#012033"/>
<path d="M47.9199 94.41V94.49C48.0699 94.88 48.8299 96.65 49.6599 96.73C50.4899 96.81 51.0399 98.38 51.0399 98.38C50.749 97.9676 50.3364 97.6564 49.8599 97.49C49.2038 97.2569 48.6653 96.7758 48.3599 96.15L47.9199 94.41Z" fill="#012033"/>
<path d="M70.2906 132.87C70.1668 132.276 70.1847 131.662 70.3428 131.076C70.5009 130.491 70.7948 129.951 71.2005 129.5C72.6105 127.9 74.0905 125.5 75.2005 123.96C75.4822 123.531 75.8667 123.179 76.319 122.936C76.7714 122.693 77.2772 122.568 77.7906 122.57C77.7906 122.57 75.0706 122.08 74.1506 123.51C73.2306 124.94 73.0706 126.15 72.2306 126.51C71.3906 126.87 68.8605 128.73 68.8105 130.72L70.2906 132.87Z" fill="#012033"/>
<path d="M72.5903 136.13C72.3174 135.827 72.174 135.429 72.1908 135.022C72.2076 134.614 72.3833 134.229 72.6803 133.95C73.7403 132.75 74.9003 132.59 75.3403 130.74C75.7513 129.388 76.4016 128.122 77.2603 127L76.1403 131.16C75.547 132.143 75.1434 133.228 74.9503 134.36C74.8703 135.67 74.7303 137.76 74.7303 137.76C74.7303 137.76 72.9203 137.18 72.5903 136.13Z" fill="#012033"/>
<path d="M66.7598 126.43C67.5845 125.588 68.192 124.559 68.5298 123.43C68.7898 121.93 69.7798 119.73 71.4398 119.13C73.0998 118.53 74.6698 117.9 74.6698 117.9C74.0021 117.865 73.3326 117.892 72.6698 117.98C71.3298 118.13 69.4898 118.86 69.2498 119.72C69.0098 120.58 68.2498 122.1 68.1098 122.55C67.7884 123.252 67.3999 123.922 66.9498 124.55C66.9498 124.55 67.1698 126.17 66.7598 126.43Z" fill="#012033"/>
<path d="M87.5999 88.6901V88.3901L92.2899 83.4801C92.6739 83.4295 93.0279 83.2454 93.2899 82.9601C93.5786 82.6185 93.7657 82.2027 93.8299 81.7601C93.9866 80.8808 94.3927 80.0651 94.9999 79.4101L105.27 68.6601C105.364 68.5583 105.427 68.4318 105.452 68.2954C105.477 68.1591 105.462 68.0185 105.41 67.8901C105.485 67.7193 105.518 67.5328 105.506 67.3465C105.494 67.1602 105.437 66.9796 105.34 66.8201L114.21 57.5501C114.255 57.5875 114.311 57.608 114.37 57.608C114.428 57.608 114.485 57.5875 114.53 57.5501L114.98 57.0901C115.013 57.0416 115.031 56.984 115.031 56.9251C115.031 56.8661 115.013 56.8086 114.98 56.7601L120.71 50.7601H120.92L122.27 49.3401L121.82 48.1101L122.15 47.7601C122.2 47.6937 122.232 47.616 122.244 47.5339C122.256 47.4519 122.248 47.3681 122.22 47.2901L123.75 45.6801C123.75 45.6801 122.03 45.6801 121.75 45.9001L121.34 46.3201C121.253 46.2616 121.15 46.2304 121.045 46.2304C120.94 46.2304 120.837 46.2616 120.75 46.3201L120.23 46.8701C120.17 46.8442 120.105 46.8309 120.04 46.8309C119.975 46.8309 119.91 46.8442 119.85 46.8701L115.85 42.8701C115.8 42.823 115.734 42.7968 115.665 42.7968C115.596 42.7968 115.53 42.823 115.48 42.8701L114.9 43.4801C114.849 43.5323 114.821 43.6023 114.821 43.6751C114.821 43.7479 114.849 43.8178 114.9 43.8701L115.05 44.0101C114.93 44.1301 114.79 44.3301 114.9 44.4401L115.27 44.8101L115.63 45.1701C115.74 45.2701 115.9 45.1701 116.01 45.0501C116.32 46.1928 116.788 47.2866 117.4 48.3001L117.96 48.8601C117.91 48.9101 117.96 49.0301 117.96 49.1801L113.02 54.3501C112.856 54.2839 112.673 54.2839 112.51 54.3501C111.89 54.802 111.162 55.0846 110.4 55.1701C109.48 55.2701 108.4 54.6001 107.4 55.6601L105.66 57.4801V57.5401C105.475 57.526 105.289 57.5538 105.115 57.6213C104.942 57.6888 104.787 57.7943 104.66 57.9301L100.66 62.1401C100.505 62.0603 100.334 62.0186 100.16 62.0186C99.9859 62.0186 99.8145 62.0603 99.6599 62.1401C99.5297 62.0845 99.3859 62.0691 99.2469 62.0958C99.108 62.1225 98.9801 62.1902 98.8799 62.2901L89.7999 72.0601C89.7379 72.1259 89.6928 72.2058 89.6684 72.2929C89.644 72.38 89.6411 72.4716 89.6599 72.5601L89.3599 72.8701C89.2908 72.941 89.2522 73.0361 89.2522 73.1351C89.2522 73.2341 89.2908 73.3292 89.3599 73.4001L89.5399 73.5801L89.4099 73.7101C89.3479 73.7789 89.3125 73.8675 89.3099 73.9601L89.1699 73.8201V73.7501C89.1844 73.6798 89.1847 73.6073 89.1709 73.5368C89.157 73.4664 89.1293 73.3994 89.0892 73.3398C89.0492 73.2802 88.9977 73.2292 88.9377 73.1898C88.8777 73.1503 88.8105 73.1232 88.7399 73.1101H88.5199C88.4474 73.0989 88.3733 73.1025 88.3023 73.1209C88.2312 73.1392 88.1647 73.1718 88.1066 73.2167C88.0486 73.2617 88.0003 73.3179 87.9648 73.3821C87.9293 73.4463 87.9072 73.5171 87.8999 73.5901V73.7201L87.3799 74.2601L86.7799 73.9901L86.3199 74.8401L83.5099 77.7801C83.3705 77.7837 83.2379 77.841 83.1399 77.9401C83.0897 77.9915 83.0506 78.0526 83.0248 78.1197C82.999 78.1867 82.9871 78.2583 82.9899 78.3301L82.5399 78.8101L81.9999 78.5001C81.9593 78.4899 81.9165 78.4941 81.8788 78.512C81.841 78.5299 81.8107 78.5604 81.7929 78.5982C81.7752 78.6361 81.7712 78.6789 81.7816 78.7194C81.792 78.7599 81.8161 78.7955 81.8499 78.8201L82.6099 79.1901L83.1399 78.6401C83.1922 78.6913 83.2552 78.7304 83.3243 78.7546C83.3934 78.7788 83.467 78.7875 83.5399 78.7801L83.2999 79.0301L83.5599 79.2901L64.7499 99.0001C64.6124 99.1462 64.5075 99.3198 64.442 99.5094C64.3765 99.699 64.3519 99.9003 64.3699 100.1L64.4899 101.61C64.4188 101.568 64.3376 101.546 64.2549 101.546C64.1722 101.546 64.091 101.568 64.0199 101.61C63.7099 101.77 63.7799 102.61 64.0199 102.84C64.1791 102.992 64.3899 103.078 64.6099 103.08L64.6799 103.93C63.5339 105.103 62.5851 106.454 61.8699 107.93C61.4519 108.807 60.9244 109.626 60.2999 110.37C59.6853 111.002 58.8745 111.408 57.9999 111.52C57.4251 111.589 56.8917 111.853 56.4899 112.27L46.3199 122.88C46.1085 123.097 45.9902 123.387 45.9902 123.69C45.9902 123.993 46.1085 124.283 46.3199 124.5L54.5399 132.7C54.6807 132.838 54.8483 132.946 55.0323 133.016C55.2164 133.087 55.413 133.119 55.6099 133.11C55.9678 133.088 56.3039 132.931 56.5499 132.67L56.6299 132.58C58.3047 130.236 59.6756 127.689 60.7099 125C61.0599 124.22 61.4199 123.41 61.8099 122.56C63.8999 118 68.1999 109 68.5499 108.29L69.9999 106.89C70.1305 107.08 70.2929 107.246 70.4799 107.38C70.7699 107.53 71.9799 107.5 72.4799 108.08C72.8599 108.49 75.1299 112.69 76.3399 114.94C76.4384 115.124 76.5724 115.286 76.734 115.418C76.8956 115.55 77.0817 115.648 77.2816 115.708C77.4815 115.767 77.6911 115.787 77.8985 115.765C78.1059 115.743 78.3069 115.68 78.4899 115.58L78.8499 115.37V115.45H78.8999L79.0899 115.34H79.1899H79.0799L79.2499 115.25V115.33H79.3299L79.4499 115.27H79.5099L79.6599 115.19H79.7599L79.8699 115.12V115.04L79.9499 114.99H80.0599L80.2799 114.87V114.8L80.4899 114.68L81.3999 114.17C82.5099 113.55 81.9499 112.36 80.9099 112.17C80.1999 112.07 80.1499 111.93 79.1999 110.17C78.2499 108.41 77.3799 106.89 76.9199 106.02C76.8033 105.818 76.7487 105.586 76.763 105.353C76.7772 105.12 76.8596 104.897 76.9999 104.71C77.3033 104.85 77.6429 104.892 77.9711 104.829C78.2993 104.766 78.5996 104.602 78.8299 104.36L81.7599 101.29C82.0273 101 82.1863 100.627 82.21 100.233C82.2337 99.8396 82.1206 99.4499 81.8899 99.1301L82.1499 98.8601C82.4799 98.5201 83.1499 98.1201 83.3499 99.0601C83.3499 99.1301 83.4699 99.1301 83.4699 99.0601C83.5324 98.8183 83.521 98.5633 83.4372 98.328C83.3534 98.0928 83.2011 97.888 82.9999 97.7401V97.7401C83.0304 97.6342 83.0327 97.5221 83.0063 97.4151C82.98 97.308 82.9261 97.2098 82.8499 97.1301L82.3399 96.6201L82.9099 96.0201L87.5999 88.6901ZM103 64.3801L102.71 64.0901L106.71 59.9301C106.834 59.7964 106.931 59.6389 106.992 59.467C107.054 59.2951 107.081 59.1125 107.07 58.9301L107.23 59.0901L109.06 57.1701C109.223 56.9961 109.443 56.8862 109.68 56.8601H110.01C110.47 56.8601 110.47 57.0701 110.4 57.2601C110.358 57.3724 110.294 57.4746 110.21 57.5601L104.14 63.9101C104.103 63.8708 104.058 63.8394 104.008 63.818C103.958 63.7966 103.904 63.7856 103.85 63.7856C103.796 63.7856 103.742 63.7966 103.692 63.818C103.642 63.8394 103.597 63.8708 103.56 63.9101L103 64.3801ZM85.6999 76.0001L84.9999 77.2801L83.9999 78.2801C84.0054 78.205 83.9949 78.1296 83.9691 78.0589C83.9432 77.9882 83.9026 77.9239 83.8499 77.8701V77.8701L85.6999 76.0001ZM118.63 46.6501L117.98 47.3401C117.947 47.3734 117.908 47.3998 117.865 47.4178C117.823 47.4359 117.776 47.4451 117.73 47.4451C117.683 47.4451 117.637 47.4359 117.594 47.4178C117.551 47.3998 117.512 47.3734 117.48 47.3401L117.31 47.1701C117.161 47.0155 117.078 46.8095 117.078 46.5951C117.078 46.3807 117.161 46.1747 117.31 46.0201L117.65 45.6601C117.682 45.6268 117.721 45.6004 117.764 45.5824C117.807 45.5643 117.853 45.555 117.9 45.555C117.946 45.555 117.993 45.5643 118.035 45.5824C118.078 45.6004 118.117 45.6268 118.15 45.6601L118.64 46.1501C118.694 46.215 118.723 46.2974 118.721 46.382C118.719 46.4665 118.687 46.5476 118.63 46.6101V46.6501ZM76.8899 103.86L74.9999 102L75.6899 101.27C76.2804 101.738 76.9614 102.078 77.6899 102.27C78.0121 102.293 78.3355 102.248 78.6399 102.14C78.6609 102.135 78.6808 102.127 78.6984 102.115C78.7161 102.102 78.7312 102.087 78.7428 102.068C78.7544 102.05 78.7623 102.03 78.7661 102.009C78.7699 101.988 78.7695 101.966 78.7649 101.945C78.7603 101.924 78.7516 101.904 78.7393 101.887C78.727 101.869 78.7114 101.854 78.6933 101.842C78.6752 101.831 78.6549 101.823 78.6338 101.819C78.6126 101.815 78.5909 101.815 78.5699 101.82C78.3835 101.869 78.1883 101.875 77.9993 101.837C77.8103 101.799 77.6326 101.718 77.4799 101.6C77.1097 101.215 76.8267 100.754 76.6499 100.25L79.5899 97.1801L81.4999 99.0701C81.7187 99.299 81.8408 99.6034 81.8408 99.9201C81.8408 100.237 81.7187 100.541 81.4999 100.77L78.5699 103.83C78.4636 103.946 78.3349 104.039 78.1916 104.103C78.0483 104.168 77.8934 104.202 77.7363 104.205C77.5792 104.208 77.4232 104.179 77.2777 104.12C77.1322 104.06 77.0002 103.972 76.8899 103.86V103.86Z" fill="#012033"/>
<path d="M88.9098 10C45.2598 10 9.75977 45.89 9.75977 90C9.75977 134.11 45.2598 170.05 88.9098 170.05C132.56 170.05 168.06 134.17 168.06 90C168.06 45.83 132.55 10 88.9098 10ZM88.9098 168.4C45.9998 168.37 11.2898 133.3 11.2898 90C11.2898 46.7 45.9998 11.69 88.9098 11.69C131.82 11.69 166.53 46.76 166.53 90C166.53 133.24 131.78 168.37 88.9098 168.37V168.4Z" fill="#012033"/>
<path d="M85.3 78.89L85.5 79.16L86.29 78.34L87 77L85.25 78.82L85.3 78.89Z" fill="#012033"/>
<path d="M58.7299 46.71L59.0599 47.06L58.5799 48.29L59.8999 49.73H60.1199L65.7199 55.83C65.6864 55.8785 65.6684 55.9361 65.6684 55.995C65.6684 56.054 65.6864 56.1116 65.7199 56.16L66.1599 56.63C66.1985 56.675 66.2512 56.7054 66.3094 56.7163C66.3676 56.7272 66.4277 56.718 66.4799 56.69L75.1699 66.14C75.0722 66.297 75.0131 66.475 74.9975 66.6592C74.9818 66.8435 75.0101 67.0288 75.0799 67.2C75.0244 67.3288 75.0071 67.4708 75.0302 67.6092C75.0532 67.7475 75.1156 67.8763 75.2099 67.98L84.9999 78.58L87.5999 75.86L88.0599 75.01L88.6499 75.28L89.1799 74.73V74.61C89.1885 74.5366 89.2117 74.4656 89.2483 74.4014C89.2849 74.3372 89.3341 74.281 89.3929 74.2361C89.4517 74.1913 89.519 74.1589 89.5906 74.1406C89.6623 74.1224 89.7368 74.1188 89.8099 74.13H90.0199C90.1618 74.1591 90.2869 74.242 90.3689 74.3614C90.4509 74.4807 90.4836 74.6272 90.4599 74.77V74.84L90.5999 74.98C90.5993 74.9338 90.6078 74.888 90.6249 74.845C90.6421 74.8021 90.6676 74.7631 90.6999 74.73L90.8199 74.6L90.6399 74.42C90.5732 74.3479 90.5361 74.2533 90.5361 74.155C90.5361 74.0568 90.5732 73.9621 90.6399 73.89L90.9399 73.58C90.9248 73.46 90.9457 73.3382 90.9999 73.23L90.9199 73.14L91.0999 72.96C91.1689 72.8891 91.2076 72.794 91.2076 72.695C91.2076 72.5961 91.1689 72.501 91.0999 72.43L90.8099 72.12C90.8295 72.0301 90.827 71.9366 90.8027 71.8478C90.7783 71.759 90.7327 71.6774 90.6699 71.61L81.6699 61.76C81.574 61.6569 81.4483 61.5861 81.3104 61.5574C81.1725 61.5288 81.029 61.5437 80.8999 61.6C80.7453 61.5202 80.5739 61.4786 80.3999 61.4786C80.226 61.4786 80.0545 61.5202 79.8999 61.6L75.9999 57.35C75.8737 57.2116 75.7189 57.1024 75.5462 57.0298C75.3735 56.9573 75.1871 56.9233 74.9999 56.93H75.0599L73.2999 55C72.2999 53.92 71.2399 54.57 70.2999 54.45C69.537 54.351 68.8131 54.0546 68.1999 53.59C68.1208 53.5565 68.0358 53.5392 67.9499 53.5392C67.864 53.5392 67.779 53.5565 67.6999 53.59L62.8599 48.32C62.9399 48.17 62.9599 48.05 62.8599 48L63.4399 47.45C64.109 46.4376 64.634 45.3371 64.9999 44.18C65.1099 44.29 65.2699 44.4 65.3699 44.3L65.7399 43.94L66.1199 43.59C66.2399 43.47 66.1199 43.28 65.9799 43.15L66.1299 43.01C66.18 42.9595 66.2081 42.8912 66.2081 42.82C66.2081 42.7489 66.18 42.6806 66.1299 42.63L65.5199 42C65.4957 41.9756 65.4669 41.9561 65.4352 41.9428C65.4034 41.9296 65.3693 41.9227 65.3349 41.9227C65.3005 41.9227 65.2664 41.9296 65.2347 41.9428C65.2029 41.9561 65.1741 41.9756 65.1499 42L61.0499 45.93C60.9313 45.8817 60.7985 45.8817 60.6799 45.93L60.1699 45.38C60.0802 45.3231 59.9762 45.2929 59.8699 45.2929C59.7637 45.2929 59.6596 45.3231 59.5699 45.38C59.3899 45.19 59.2499 45.03 59.1699 44.96C58.8899 44.68 57.1699 44.7 57.1699 44.7L58.6699 46.33C58.6538 46.3942 58.6508 46.4609 58.6611 46.5262C58.6714 46.5915 58.6948 46.654 58.7299 46.71V46.71ZM70.7999 56H71.1299C71.3683 56.0288 71.5884 56.1424 71.7499 56.32L73.5399 58.32L73.6999 58.17C73.6853 58.3511 73.7079 58.5333 73.7664 58.7052C73.8249 58.8772 73.918 59.0354 74.0399 59.17L77.9399 63.41L77.6399 63.7L77.1199 63.13C77.0827 63.0922 77.0383 63.0622 76.9894 63.0417C76.9405 63.0213 76.888 63.0107 76.8349 63.0107C76.7819 63.0107 76.7294 63.0213 76.6804 63.0417C76.6315 63.0622 76.5871 63.0922 76.5499 63.13V63.13L70.6099 56.66C70.5259 56.5709 70.4612 56.4653 70.4199 56.35C70.3399 56.17 70.3499 55.92 70.7999 56ZM62.3799 45.13L62.8799 44.65C62.9116 44.6171 62.9497 44.5908 62.9918 44.5729C63.0339 44.555 63.0792 44.5458 63.1249 44.5458C63.1707 44.5458 63.216 44.555 63.2581 44.5729C63.3002 44.5908 63.3382 44.6171 63.3699 44.65L63.7099 45.01C63.8614 45.1651 63.9462 45.3733 63.9462 45.59C63.9462 45.8068 63.8614 46.015 63.7099 46.17L63.5399 46.33C63.509 46.3643 63.4712 46.3917 63.429 46.4105C63.3868 46.4293 63.3411 46.439 63.2949 46.439C63.2487 46.439 63.2031 46.4293 63.1609 46.4105C63.1187 46.3917 63.0809 46.3643 63.0499 46.33L62.4099 45.63C62.3746 45.5995 62.3458 45.5622 62.3251 45.5204C62.3045 45.4785 62.2924 45.4329 62.2896 45.3864C62.2868 45.3398 62.2934 45.2931 62.3089 45.2491C62.3244 45.2051 62.3485 45.1646 62.3799 45.13V45.13Z" fill="#012033"/>
<path d="M19.0312 59.59L22.7312 60.17L25.3212 57.49L25.9012 61.15L29.2812 62.74L25.9412 64.42L25.4412 68.08L22.7913 65.47L19.1012 66.13L20.8112 62.84L19.0312 59.59Z" fill="#012033"/>
<path d="M43.4501 42.35L40.8701 39.76L41.8701 42.4L41.1501 43.12L38.5101 42.12L41.0901 44.71L39.7301 46.05L34.8301 41.15L36.3101 39.68L39.6801 40.93L38.4501 37.56L39.9301 36.1L44.8301 41L43.4501 42.35Z" fill="#012033"/>
<path d="M54.6105 31.9201L55.5105 33.3101L51.3205 36.0001L47.5605 30.1901L51.6705 27.5701L52.5705 28.9601L50.0705 30.5501L50.6005 31.3701L52.7405 30.0001L53.5805 31.3001L51.4405 32.6601L52.0305 33.5701L54.6105 31.9201Z" fill="#012033"/>
<path d="M65.7301 22.8801L63.8601 23.6101L65.8601 28.4901L64.0001 29.1801L62.0701 24.3001L60.1901 25.0001L59.5801 23.4601L65.1201 21.3101L65.7301 22.8801Z" fill="#012033"/>
<path d="M74.86 18.79L77 18.42L80.47 24.8L78.55 25.15L77.95 23.88L75.95 24.23L75.85 25.62L74 26L74.86 18.79ZM77.36 22.7L76.27 20.43L76.08 22.93L77.36 22.7Z" fill="#012033"/>
<path d="M89.0012 17.45L90.3112 22.19L91.7212 17.51H93.7212L91.2212 24.34H89.3112L86.9512 17.4L89.0012 17.45Z" fill="#012033"/>
<path d="M106.39 25L106.03 26.6L101.16 25.48L102.65 18.77L107.44 19.87L107.08 21.48L104.17 20.81L103.96 21.76L106.45 22.33L106.11 23.82L103.63 23.25L103.39 24.31L106.39 25Z" fill="#012033"/>
<path d="M113.59 29.17L116.42 22.91L119.35 24.25C119.648 24.3813 119.914 24.5758 120.13 24.82C120.332 25.0592 120.488 25.3339 120.59 25.63C120.688 25.9231 120.732 26.2314 120.72 26.54C120.71 26.8371 120.642 27.1293 120.52 27.4C120.417 27.6354 120.275 27.8518 120.1 28.04C119.931 28.2292 119.732 28.3882 119.51 28.51C119.288 28.6319 119.048 28.7196 118.8 28.77L119.11 31.68L117.18 30.81L116.92 28.37L116.21 28.05L115.34 30L113.59 29.17ZM116.89 26.55L118 27.05C118.077 27.0802 118.163 27.0802 118.24 27.05C118.342 27.0199 118.435 26.9649 118.51 26.89C118.708 26.6982 118.823 26.436 118.83 26.16C118.823 26.0514 118.792 25.9456 118.74 25.85C118.699 25.7736 118.636 25.711 118.56 25.67L117.5 25.19L116.89 26.55Z" fill="#012033"/>
<path d="M131.9 34.44C131.809 34.2307 131.705 34.027 131.59 33.83C131.484 33.6443 131.363 33.4671 131.23 33.3C131.1 33.125 130.945 32.97 130.77 32.84C130.662 32.7522 130.535 32.6906 130.4 32.66C130.346 32.648 130.291 32.6532 130.24 32.6747C130.19 32.6963 130.148 32.7331 130.12 32.78C130.093 32.8271 130.078 32.8806 130.078 32.935C130.078 32.9894 130.093 33.0429 130.12 33.09C130.182 33.2417 130.266 33.3833 130.37 33.51L130.81 34.1C131.055 34.4138 131.273 34.7484 131.46 35.1C131.613 35.3886 131.686 35.7135 131.67 36.04C131.643 36.4067 131.503 36.756 131.27 37.04C131.073 37.3362 130.8 37.5744 130.48 37.73C130.204 37.8677 129.897 37.9298 129.59 37.91C129.276 37.8892 128.968 37.8148 128.68 37.69C128.381 37.5656 128.099 37.4043 127.84 37.21C127.552 37.002 127.284 36.7676 127.04 36.51C126.791 36.2393 126.56 35.952 126.35 35.65C126.15 35.3714 125.979 35.0732 125.84 34.76L127.49 33.91C127.594 34.1609 127.714 34.4048 127.85 34.64C127.978 34.8631 128.122 35.077 128.28 35.28C128.448 35.4971 128.647 35.689 128.87 35.85C128.983 35.9508 129.121 36.0198 129.27 36.05C129.312 36.0554 129.355 36.0489 129.394 36.0312C129.433 36.0136 129.466 35.9855 129.49 35.95C129.528 35.8939 129.548 35.8277 129.548 35.76C129.548 35.6923 129.528 35.6262 129.49 35.57C129.389 35.3951 129.275 35.228 129.15 35.07C129 34.88 128.84 34.66 128.67 34.42C128.44 34.1142 128.255 33.7776 128.12 33.42C128.006 33.1525 127.968 32.8588 128.011 32.5713C128.053 32.2837 128.174 32.0133 128.36 31.79C128.598 31.4202 128.949 31.1363 129.36 30.98C129.76 30.8497 130.189 30.829 130.6 30.92C131.032 31.0237 131.439 31.2105 131.8 31.47C132.071 31.6684 132.316 31.9003 132.53 32.16C132.732 32.4028 132.916 32.6602 133.08 32.93C133.24 33.18 133.37 33.42 133.48 33.63L131.9 34.44Z" fill="#012033"/>
<path d="M140.471 46.68L139.251 47.79L135.871 44.09L140.971 39.48L144.291 43.11L143.071 44.21L141.071 42.01L140.351 42.66L142.071 44.54L140.941 45.54L139.221 43.65L138.411 44.38L140.471 46.68Z" fill="#012033"/>
<path d="M154.141 80.27L161.011 79.52L161.391 82.7C161.438 83.0358 161.408 83.3782 161.301 83.7C161.203 83.9982 161.047 84.2737 160.841 84.51C160.641 84.7398 160.401 84.9298 160.131 85.07C159.872 85.2163 159.586 85.3082 159.291 85.34C158.775 85.4056 158.251 85.3002 157.801 85.04C157.58 84.9113 157.381 84.7494 157.211 84.56L154.861 86.3L154.611 84.21L156.611 82.76L156.521 81.99L154.411 82.22L154.141 80.27ZM158.141 81.77L158.291 82.97C158.298 83.0518 158.338 83.1274 158.401 83.18C158.478 83.2526 158.57 83.3072 158.671 83.34C158.806 83.3614 158.945 83.3614 159.081 83.34C159.218 83.3242 159.351 83.2799 159.471 83.21C159.559 83.1491 159.634 83.0708 159.691 82.98C159.738 82.9056 159.759 82.8177 159.751 82.73L159.611 81.57L158.141 81.77Z" fill="#012033"/>
<path d="M154.87 94L161.78 94.48L161.66 96.39L154.75 95.91L154.87 94Z" fill="#012033"/>
<path d="M153.641 104.07L160.381 105.71L159.281 110.36L157.661 109.97L158.321 107.18L157.201 106.91L156.671 109.18L155.171 108.81L155.711 106.54L153.201 105.93L153.641 104.07Z" fill="#012033"/>
<path d="M150 116.09L156.32 118.95L155.54 120.69L150.73 118.51L149.44 121.39L147.93 120.71L150 116.09Z" fill="#012033"/>
<path d="M142.581 132.4L141.221 131.4L144.081 127.4L149.751 131.4L146.951 135.4L145.591 134.4L147.291 131.98L146.491 131.42L145.001 133.5L143.731 132.61L145.191 130.54L144.291 129.91L142.581 132.4Z" fill="#012033"/>
<path d="M113.921 159.74L111.921 160.45L107.471 154.69L109.301 154.04L110.101 155.2L111.971 154.54L111.841 153.15L113.691 152.5L113.921 159.74ZM110.831 156.27L112.271 158.35L112.061 155.84L110.831 156.27Z" fill="#012033"/>
<path d="M96.5411 161.54C96.7525 161.631 96.9696 161.708 97.1911 161.77C97.3984 161.828 97.6087 161.875 97.8211 161.91C98.0368 161.94 98.2555 161.94 98.4711 161.91C98.6077 161.89 98.7397 161.846 98.8611 161.78C98.908 161.752 98.9449 161.71 98.9664 161.659C98.988 161.609 98.9931 161.553 98.9811 161.5C98.9734 161.443 98.9508 161.389 98.9157 161.343C98.8806 161.298 98.8342 161.262 98.7811 161.24C98.6311 161.176 98.4729 161.132 98.3111 161.11L97.5911 161C97.1897 160.94 96.7947 160.843 96.4111 160.71C96.1007 160.605 95.822 160.422 95.6011 160.18C95.369 159.894 95.2264 159.546 95.1911 159.18C95.1282 158.826 95.1557 158.461 95.2711 158.12C95.3693 157.833 95.5419 157.578 95.7711 157.38C96.009 157.176 96.2794 157.014 96.5711 156.9C96.8756 156.788 97.1905 156.708 97.5111 156.66C97.8439 156.632 98.1784 156.632 98.5111 156.66C98.8811 156.676 99.249 156.723 99.6111 156.8C99.9522 156.868 100.287 156.965 100.611 157.09L100.031 158.84C99.7792 158.737 99.5222 158.647 99.2611 158.57C99.0123 158.497 98.7582 158.444 98.5011 158.41C98.233 158.365 97.9593 158.365 97.6911 158.41C97.5406 158.415 97.3947 158.464 97.2711 158.55C97.2346 158.572 97.2061 158.606 97.1899 158.645C97.1737 158.685 97.1706 158.729 97.1811 158.77C97.1914 158.837 97.2217 158.9 97.2681 158.95C97.3144 159 97.3747 159.035 97.4411 159.05C97.6331 159.112 97.8307 159.156 98.0311 159.18L98.8311 159.31C99.196 159.374 99.5519 159.481 99.8911 159.63C100.155 159.744 100.385 159.923 100.561 160.15C100.724 160.397 100.83 160.677 100.871 160.97C100.95 161.415 100.887 161.873 100.691 162.28C100.499 162.652 100.209 162.963 99.8511 163.18C99.4773 163.413 99.0579 163.563 98.6211 163.62C98.289 163.66 97.9533 163.66 97.6211 163.62C97.3067 163.591 96.9954 163.534 96.6911 163.45C96.3911 163.37 96.1311 163.3 95.9111 163.22L96.5411 161.54Z" fill="#012033"/>
<path d="M82.47 161.69C82.69 161.84 82.88 161.95 83.06 162.05C83.2505 162.147 83.4477 162.231 83.65 162.3C83.855 162.379 84.0708 162.426 84.29 162.44C84.4287 162.457 84.5693 162.439 84.7 162.39C84.7493 162.369 84.7915 162.334 84.8216 162.29C84.8518 162.246 84.8686 162.194 84.87 162.14C84.8716 162.084 84.8597 162.028 84.8353 161.978C84.811 161.928 84.7749 161.884 84.73 161.85C84.5919 161.761 84.4443 161.687 84.29 161.63L83.6 161.38C83.2205 161.243 82.8555 161.069 82.51 160.86C82.2217 160.698 81.9805 160.464 81.81 160.18C81.6493 159.855 81.5802 159.492 81.61 159.13C81.6249 158.778 81.7243 158.435 81.9 158.13C82.0535 157.866 82.2789 157.651 82.55 157.51C82.8183 157.354 83.1133 157.249 83.42 157.2C83.7504 157.146 84.0858 157.13 84.42 157.15C84.7577 157.177 85.0923 157.234 85.42 157.32C85.7616 157.412 86.0959 157.529 86.42 157.67C86.7385 157.8 87.0433 157.96 87.33 158.15L86.42 159.75C86.16 159.58 85.93 159.44 85.72 159.33C85.4894 159.213 85.2523 159.11 85.01 159.02C84.7515 158.93 84.4827 158.873 84.21 158.85C84.0652 158.817 83.9148 158.817 83.77 158.85C83.7307 158.87 83.6973 158.9 83.6728 158.937C83.6483 158.974 83.6336 159.016 83.63 159.06C83.6293 159.127 83.6477 159.193 83.6832 159.249C83.7186 159.306 83.7696 159.351 83.83 159.38C84.0087 159.48 84.1962 159.564 84.39 159.63L85.15 159.91C85.5027 160.048 85.8383 160.225 86.15 160.44C86.3827 160.603 86.5688 160.823 86.69 161.08C86.8115 161.349 86.8598 161.646 86.83 161.94C86.8257 162.392 86.6748 162.831 86.4 163.19C86.1364 163.512 85.791 163.757 85.4 163.9C84.9808 164.051 84.5345 164.113 84.09 164.08C83.7504 164.063 83.4143 164.002 83.09 163.9C82.7891 163.803 82.4951 163.686 82.21 163.55C81.94 163.41 81.7 163.29 81.5 163.17L82.47 161.69Z" fill="#012033"/>
<path d="M70.9006 154.8C71.3848 154.928 71.8352 155.16 72.2206 155.48C72.578 155.776 72.8736 156.14 73.0906 156.55C73.3014 156.949 73.437 157.382 73.4906 157.83C73.5396 158.273 73.5022 158.721 73.3806 159.15C73.2645 159.581 73.0602 159.983 72.7806 160.33C72.5045 160.68 72.1653 160.975 71.7806 161.2C71.3811 161.43 70.9387 161.577 70.4806 161.63C69.9908 161.688 69.4943 161.648 69.0206 161.51C68.3433 161.321 67.7374 160.935 67.2798 160.401C66.8223 159.866 66.5337 159.208 66.4506 158.51C66.4029 158.074 66.4369 157.633 66.5506 157.21C66.6709 156.781 66.8748 156.38 67.1506 156.03C67.5868 155.476 68.1797 155.066 68.8522 154.854C69.5246 154.642 70.2454 154.637 70.9206 154.84L70.9006 154.8ZM71.5006 158.59C71.6477 158.166 71.6477 157.704 71.5006 157.28C71.4173 157.079 71.291 156.898 71.1306 156.75C70.943 156.588 70.7206 156.472 70.4806 156.41C70.2374 156.352 69.9839 156.352 69.7406 156.41C69.5268 156.457 69.3256 156.549 69.1506 156.68C68.9791 156.816 68.8335 156.982 68.7206 157.17C68.6004 157.362 68.5094 157.571 68.4506 157.79C68.389 158.008 68.362 158.234 68.3706 158.46C68.3732 158.676 68.4174 158.89 68.5006 159.09C68.5803 159.294 68.7071 159.475 68.8706 159.62C69.059 159.779 69.2815 159.892 69.5206 159.95C69.7605 160.008 70.0108 160.008 70.2506 159.95C70.4638 159.907 70.6651 159.818 70.8406 159.69C71.0147 159.558 71.1637 159.395 71.2806 159.21C71.3838 159.015 71.4579 158.806 71.5006 158.59V158.59Z" fill="#012033"/>
<path d="M58.8307 154.11C58.415 154.872 57.7251 155.448 56.9007 155.72C56.4604 155.869 55.9935 155.924 55.5307 155.88C55.0132 155.842 54.5109 155.688 54.0607 155.43C53.5121 155.158 53.0434 154.748 52.7007 154.24C52.4023 153.799 52.2358 153.282 52.2207 152.75L54.0007 152.54C53.9726 152.758 54.0037 152.979 54.0907 153.18C54.1712 153.358 54.2869 153.518 54.4307 153.65C54.5652 153.777 54.7166 153.885 54.8807 153.97C55.0952 154.099 55.3404 154.168 55.5907 154.17C55.809 154.176 56.0254 154.128 56.2207 154.03C56.4163 153.936 56.5953 153.811 56.7507 153.66C56.898 153.503 57.0256 153.328 57.1307 153.14C57.2397 152.933 57.3172 152.71 57.3607 152.48C57.4008 152.258 57.4008 152.031 57.3607 151.81C57.3201 151.596 57.2312 151.394 57.1007 151.22C56.9599 151.032 56.7788 150.878 56.5707 150.77C56.4077 150.683 56.2323 150.623 56.0507 150.59C55.8623 150.555 55.6691 150.555 55.4807 150.59C55.2792 150.634 55.0929 150.731 54.9407 150.87L53.9407 149.31C54.2279 149.077 54.574 148.928 54.9407 148.88C55.3477 148.81 55.7637 148.81 56.1707 148.88C56.575 148.96 56.9656 149.099 57.3307 149.29C57.7565 149.512 58.1301 149.822 58.4267 150.2C58.7233 150.577 58.936 151.014 59.0507 151.48C59.1722 151.919 59.2095 152.377 59.1607 152.83C59.135 153.274 59.0229 153.709 58.8307 154.11Z" fill="#012033"/>
<path d="M48.3102 143.47L44.0002 148.83L42.4902 147.63L46.7902 142.27L48.3102 143.47Z" fill="#012033"/>
<path d="M34.4 139.87L33 138.24L36.75 132.07L38 133.55L37.22 134.7L38.52 136.2L39.78 135.6L41.07 137.08L34.4 139.87ZM36.51 135.78L35.1 137.85L37.36 136.77L36.51 135.78Z" fill="#012033"/>
<path d="M25.44 124.13L26.44 125.88L31 123.3L32 125L27.44 127.57L28.44 129.33L27 130.14L24 124.97L25.44 124.13Z" fill="#012033"/>
<path d="M26.8807 114.4L20.3707 116.68L19.7207 114.87L26.2207 112.59L26.8807 114.4Z" fill="#012033"/>
<path d="M23.4898 101.5C23.5712 101.989 23.5508 102.489 23.4298 102.97C23.3085 103.413 23.1012 103.827 22.8198 104.19C22.5435 104.542 22.2044 104.841 21.8198 105.07C21.0381 105.527 20.1098 105.663 19.2298 105.45C18.79 105.341 18.3756 105.147 18.0098 104.88C17.6095 104.621 17.2687 104.28 17.0098 103.88C16.7532 103.46 16.58 102.995 16.4998 102.51C16.4165 102.021 16.4404 101.519 16.5698 101.04C16.6871 100.596 16.8947 100.18 17.1798 99.8201C17.4573 99.4715 17.7962 99.1766 18.1798 98.9501C18.5573 98.7229 18.9748 98.5702 19.4098 98.5001C19.8532 98.4399 20.3037 98.4603 20.7398 98.5601C21.1796 98.6691 21.594 98.8627 21.9598 99.1301C22.3406 99.3961 22.6637 99.7362 22.9098 100.13C23.1957 100.542 23.3931 101.008 23.4898 101.5V101.5ZM20.2798 103.59C20.5051 103.555 20.7241 103.488 20.9298 103.39C21.1272 103.295 21.3065 103.166 21.4598 103.01C21.6094 102.855 21.7192 102.667 21.7798 102.46C21.8361 102.22 21.8361 101.97 21.7798 101.73C21.7436 101.482 21.6513 101.246 21.5098 101.04C21.3797 100.862 21.2081 100.717 21.0098 100.62C20.8141 100.517 20.6001 100.452 20.3798 100.43C20.1575 100.4 19.9322 100.4 19.7098 100.43C19.4846 100.465 19.2656 100.532 19.0598 100.63C18.8618 100.724 18.6823 100.853 18.5298 101.01C18.3816 101.17 18.2721 101.361 18.2098 101.57C18.1584 101.807 18.1584 102.053 18.2098 102.29C18.243 102.525 18.332 102.748 18.4695 102.941C18.607 103.135 18.7889 103.292 18.9998 103.4C19.1933 103.502 19.4031 103.57 19.6198 103.6C19.8395 103.62 20.0608 103.617 20.2798 103.59V103.59Z" fill="#012033"/>
<path d="M19.2196 88L22.6096 88.22L22.4996 90.13L15.5996 89.68L15.6796 88.19L19.3496 85.63L15.8396 85.4L15.9996 83.49L22.9096 83.95L22.8196 85.47L19.2196 88Z" fill="#012033"/>
<path d="M158.451 59.59L154.751 60.17L152.161 57.49L151.581 61.15L148.201 62.74L151.551 64.42L152.041 68.08L154.691 65.47L158.381 66.13L156.671 62.84L158.451 59.59Z" fill="#012033"/>
<path d="M135.7 149.05L134.63 145.51L136.99 142.63L133.24 142.53L131.19 139.44L129.94 142.93L126.32 143.89L129.3 146.14L129.11 149.83L132.2 147.73L135.7 149.05Z" fill="#012033"/>
</svg>
